<svg width="340" height="340" viewBox="0 0 340 340" fill="none" xmlns="http://www.w3.org/2000/svg">
<g clip-path="url(#clip0_1932_18957)">
<path opacity="0.18" d="M124.638 10.9683C82.9074 28.662 47.8337 66.0932 35.1578 110.427C31.5158 123.18 29.5634 136.331 25.3448 148.968C20.6508 162.982 13.2051 176.074 8.05579 189.961C-7.55388 231.713 0.276253 279.41 25.0211 313.104C43.6657 338.483 71.233 348.62 102.675 339.966C118.163 335.715 131.497 326.185 146.509 321.198C167.218 314.319 190.617 314.973 211.771 314.342C235.403 313.63 284.923 303.831 308.636 301.495C344.994 297.898 343.254 210.796 335.282 188.84C327.311 166.883 314.888 147.134 305.945 125.621C295.606 100.768 289.809 73.451 275.353 51.039C253.218 16.7144 211.771 -1.97203 170.405 0.165227C154.759 1.0295 139.322 4.67333 124.638 10.9683V10.9683Z" fill="#C6B5F8"/>
<path d="M168.661 292.274C254.436 292.274 323.969 285.249 323.969 276.583C323.969 267.917 254.436 260.892 168.661 260.892C82.8872 260.892 13.3535 267.917 13.3535 276.583C13.3535 285.249 82.8872 292.274 168.661 292.274Z" fill="url(#paint0_linear_1932_18957)"/>
<path d="M210.974 220.684H152.126L141.426 175.11H200.273L210.974 220.684Z" fill="#C6B5F8"/>
<path d="M207.494 220.684H152.126L141.426 175.11H196.793L207.494 220.684Z" fill="url(#paint1_linear_1932_18957)"/>
<path d="M288.929 219.027H79.0664V274.937H288.929V219.027Z" fill="#C6B5F8"/>
<path d="M288.929 219.027H79.0664V274.937H288.929V219.027Z" fill="url(#paint2_linear_1932_18957)"/>
<path d="M254.317 57.0513H83.0154C72.9051 57.0513 64.709 65.2473 64.709 75.3577V171.151C64.709 181.262 72.9051 189.458 83.0154 189.458H254.317C264.427 189.458 272.623 181.262 272.623 171.151V75.3577C272.623 65.2473 264.427 57.0513 254.317 57.0513Z" fill="#C6B5F8"/>
<path d="M272.624 163.191V171.141C272.618 175.994 270.688 180.647 267.256 184.079C263.824 187.511 259.171 189.442 254.317 189.447H83.0057C78.1505 189.447 73.4942 187.518 70.0611 184.085C66.6279 180.652 64.6992 175.996 64.6992 171.141V171.141V163.191H272.624Z" fill="url(#paint3_linear_1932_18957)"/>
<path opacity="0.1" d="M248.253 146.812V198.345H203.649C202.413 198.345 201.229 197.854 200.355 196.981C199.482 196.108 198.991 194.923 198.991 193.688V193.688V151.469C198.991 150.234 199.482 149.05 200.355 148.176C201.229 147.303 202.413 146.812 203.649 146.812H248.253V146.812Z" fill="#020202"/>
<path d="M132.809 190.625H166.056C166.341 190.625 166.623 190.681 166.886 190.789C167.149 190.898 167.387 191.058 167.589 191.259C167.79 191.461 167.95 191.699 168.059 191.962C168.167 192.225 168.223 192.507 168.223 192.792V192.792C168.223 193.076 168.167 193.358 168.059 193.621C167.95 193.884 167.79 194.123 167.589 194.324C167.387 194.525 167.149 194.685 166.886 194.794C166.623 194.903 166.341 194.959 166.056 194.959H132.809C132.524 194.959 132.242 194.903 131.979 194.794C131.716 194.685 131.478 194.525 131.276 194.324C131.075 194.123 130.915 193.884 130.807 193.621C130.698 193.358 130.642 193.076 130.642 192.792V192.792C130.642 192.217 130.87 191.666 131.276 191.259C131.683 190.853 132.234 190.625 132.809 190.625V190.625Z" fill="#473F47"/>
<path d="M138.185 179.028L137.195 185.561L139.936 185.874L142.926 178.966L138.185 179.028Z" fill="#FCBDBA"/>
<path d="M140.758 184.915C140.625 184.808 140.509 184.682 140.414 184.54C140.274 184.628 140.117 184.683 139.953 184.703C139.789 184.723 139.623 184.706 139.466 184.655L138.091 184.426C137.849 184.396 137.614 184.33 137.393 184.228H137.299L137.007 184.79C136.508 185.795 136.214 186.89 136.143 188.01C138.745 188.626 141.42 188.882 144.092 188.77C144.306 188.8 144.524 188.772 144.724 188.689C144.923 188.607 145.097 188.473 145.228 188.301C145.279 188.185 145.306 188.059 145.306 187.932C145.306 187.804 145.279 187.678 145.228 187.562C145.102 187.298 144.925 187.061 144.706 186.866C144.488 186.671 144.233 186.522 143.957 186.426C143.248 186.134 142.53 185.884 141.873 185.551C141.474 185.39 141.099 185.177 140.758 184.915V184.915Z" fill="#C6B5F8"/>
<path d="M156.564 181.018L155.71 187.572L158.461 187.822L161.305 180.862L156.564 181.018Z" fill="#FCBDBA"/>
<path opacity="0.1" d="M249.993 89.7151V109.939C249.993 112.597 248.937 115.146 247.058 117.026C245.178 118.906 242.629 119.962 239.97 119.962H181.279L157.492 147.323V79.6919H239.97C241.286 79.6919 242.59 79.9512 243.806 80.4549C245.022 80.9586 246.127 81.6969 247.058 82.6276C247.988 83.5584 248.727 84.6633 249.23 85.8794C249.734 87.0955 249.993 88.3989 249.993 89.7151V89.7151Z" fill="#020202"/>
<path d="M237.552 71.0859H171.182C165.647 71.0859 161.159 75.5735 161.159 81.1092V101.333C161.159 106.868 165.647 111.356 171.182 111.356H237.552C243.088 111.356 247.576 106.868 247.576 101.333V81.1092C247.576 75.5735 243.088 71.0859 237.552 71.0859Z" fill="white"/>
<path opacity="0.1" d="M172.808 106.365C172.471 106.395 172.132 106.345 171.818 106.219C171.31 105.866 170.962 105.327 170.849 104.719C169.213 99.6656 165.827 94.7478 160.742 93.2578C159.419 98.6445 159.513 104.271 159.617 109.824C159.617 111.304 159.784 113.002 160.971 113.877C161.746 114.355 162.647 114.588 163.555 114.544C169.321 114.763 175.051 113.542 180.226 110.991C181.778 110.22 184.977 107.209 181.997 106.23C181.101 105.928 179.122 106.386 178.163 106.386L172.808 106.365Z" fill="#020202"/>
<path d="M137.945 133.559L142.03 156.262L137.945 180.685L144.561 181.196L154.199 153.689L150.938 131.892L137.945 133.559Z" fill="#473F47"/>
<path d="M160.784 131.892L168.129 162.118L162.191 182.925L156.304 182.623L157.127 164.869L146.76 136.164L160.784 131.892Z" fill="#473F47"/>
<path d="M181.008 106.824C181.891 106.307 182.837 105.905 183.821 105.625C183.975 105.556 184.144 105.526 184.313 105.537C184.482 105.548 184.646 105.6 184.79 105.688C184.943 105.831 185.042 106.022 185.071 106.23C185.224 106.897 185.169 107.595 184.915 108.23C186.025 108.845 187.19 109.354 188.395 109.751C188.646 109.794 188.886 109.889 189.1 110.028C189.313 110.168 189.495 110.351 189.635 110.564C189.709 110.787 189.716 111.027 189.652 111.254C189.589 111.48 189.46 111.683 189.281 111.835C188.916 112.137 188.477 112.335 188.009 112.408C184.988 113.117 180.07 112.408 179.351 108.793C179.195 108.001 179.487 107.865 180.112 107.417C180.445 107.199 180.747 107.011 181.008 106.824Z" fill="#FCBDBA"/>
<path d="M158.305 78.9315C158.992 80.3101 159.432 81.7981 159.607 83.3284C159.688 84.0924 159.568 84.8642 159.259 85.5677C158.95 86.2712 158.463 86.8819 157.847 87.3397C157.47 87.5135 157.12 87.7378 156.805 88.0066C155.7 89.1422 156.961 91.1948 156.325 92.6639C156.08 93.1475 155.664 93.5224 155.157 93.7151C154.65 93.9078 154.09 93.9045 153.585 93.7058C153.08 93.4851 152.632 93.1545 152.271 92.7381C151.91 92.3217 151.647 91.83 151.501 91.299C151.22 90.2321 151.094 89.1303 151.126 88.0274L151.012 81.4633C150.865 80.0024 151.095 78.5284 151.678 77.1811C152.076 76.4949 152.655 75.9316 153.351 75.5529C154.048 75.1743 154.835 74.995 155.627 75.0347C157.284 75.2431 157.753 77.6395 158.305 78.9315Z" fill="#FCBDBA"/>
<path d="M181.206 111.71C181.206 111.71 168.619 122.952 167.713 122.952C166.806 122.952 161.211 115.888 161.211 115.888L160.784 131.934C159.23 132.85 157.611 133.651 155.939 134.33C153.061 135.644 149.922 136.285 146.76 136.205C140.644 135.653 137.945 133.601 137.945 133.601L141.717 95.9146C141.717 95.9146 148.844 90.7884 151.282 91.5698C153.025 91.8823 154.81 91.8823 156.554 91.5698C160.076 91.101 163.67 95.9146 163.67 95.9146L168.348 111.283L179.32 107.386C180.034 107.832 180.597 108.484 180.933 109.256C181.27 110.027 181.365 110.883 181.206 111.71Z" fill="white"/>
<path d="M159.69 71.8568C159.771 71.0291 159.577 70.1979 159.138 69.4916C158.294 68.3143 156.565 68.2101 155.148 68.5227C154.173 68.7898 153.23 69.1601 152.335 69.6271C151.676 69.8985 150.957 69.992 150.251 69.898C148.38 69.8648 146.567 70.5425 145.177 71.7943C143.259 73.6072 142.811 76.2849 142.613 78.7959C142.405 81.6404 143.655 84.0055 145.541 86.1727C147.135 88.0586 150.042 89.9132 152.116 87.5272C153.04 86.3144 153.462 84.7919 153.293 83.2762C152.796 83.2254 152.328 83.0202 151.954 82.6893C151.581 82.3585 151.32 81.9187 151.209 81.432C151.138 81.1261 151.153 80.8064 151.252 80.5085C151.351 80.2105 151.531 79.9459 151.772 79.7441C151.92 79.6551 152.083 79.5961 152.254 79.5704C152.425 79.5448 152.599 79.553 152.766 79.5946C152.933 79.6362 153.091 79.7104 153.23 79.8129C153.368 79.9154 153.486 80.0443 153.574 80.1921C153.634 80.2856 153.68 80.3874 153.71 80.4943C154.01 79.8898 154.231 79.2489 154.366 78.5876C154.606 77.952 155.408 77.3998 155.929 77.827C156.231 78.0666 156.408 78.598 156.794 78.5146C156.922 78.4666 157.034 78.3836 157.117 78.275C157.875 77.5454 158.515 76.7017 159.013 75.7744C159.48 74.6803 159.724 73.5045 159.732 72.3152C159.693 72.1658 159.678 72.0109 159.69 71.8568V71.8568Z" fill="#FC682D"/>
<path d="M134.955 70.4607C133.63 70.3035 132.289 70.5544 131.11 71.18C129.932 71.8056 128.972 72.776 128.36 73.9615C126.912 76.931 127.954 80.4423 128.193 83.7451C128.411 84.8916 128.233 86.078 127.687 87.1098C127.142 88.1415 126.262 88.9574 125.193 89.4236C122.859 90.8301 120.171 91.7783 118.306 93.7684C116.837 95.4042 115.97 97.4916 115.847 99.6864C115.73 100.601 115.89 101.53 116.305 102.354C116.713 102.963 117.245 103.478 117.868 103.865C119.595 105.113 121.553 106.003 123.628 106.485C125.704 106.966 127.854 107.028 129.954 106.667C132.048 106.27 133.986 105.285 135.542 103.828C137.097 102.37 138.205 100.5 138.737 98.4361C139.654 94.0392 137.425 89.6736 136.581 85.2559C136.426 84.7383 136.377 84.1951 136.436 83.6582C136.495 83.1214 136.661 82.6018 136.925 82.1302C137.623 81.1924 138.915 80.9736 139.925 80.3797C145.395 77.1602 138.967 71.0025 134.955 70.4607Z" fill="#FC682D"/>
<path d="M142.748 74.7119H142.654C141.509 74.7119 140.581 75.6402 140.581 76.7853V76.8791C140.581 78.0242 141.509 78.9525 142.654 78.9525H142.748C143.893 78.9525 144.822 78.0242 144.822 76.8791V76.7853C144.822 75.6402 143.893 74.7119 142.748 74.7119Z" fill="#C6B5F8"/>
<path d="M159.253 186.853C159.122 186.744 159.007 186.618 158.909 186.478C158.771 186.57 158.615 186.631 158.451 186.656C158.287 186.681 158.12 186.67 157.961 186.624L156.585 186.416C156.341 186.389 156.102 186.326 155.877 186.228H155.783L155.502 186.801C155.032 187.82 154.763 188.92 154.71 190.041C157.325 190.596 160.002 190.799 162.67 190.646C162.885 190.672 163.104 190.639 163.302 190.551C163.5 190.463 163.671 190.323 163.795 190.146C163.847 190.029 163.873 189.903 163.873 189.776C163.873 189.648 163.847 189.522 163.795 189.406C163.666 189.144 163.485 188.911 163.263 188.721C163.041 188.531 162.782 188.388 162.503 188.301C161.785 188.02 161.055 187.791 160.357 187.457C159.963 187.308 159.591 187.105 159.253 186.853V186.853Z" fill="#C6B5F8"/>
<path d="M159.836 194.959H155.616L152.251 204.065H134.861L138.227 194.959H134.007L104.406 274.936H108.626L111.554 267.028H128.912L125.984 274.936H130.204L133.132 267.028H133.257V266.695L159.586 195.574V274.936H163.806V194.959H159.836ZM151.105 207.17L146.718 219.027H129.318L133.705 207.17H151.105ZM123.775 234.041L128.162 222.195H145.583L141.175 234.041H123.775ZM140.029 237.167L135.643 249.014H118.243L122.661 237.104L140.029 237.167ZM112.7 263.986L117.086 252.129H134.486L130.1 263.986H112.7Z" fill="#C6B5F8"/>
<path d="M267.091 141.269H203.649C201.076 141.269 198.991 143.354 198.991 145.926V188.134C198.991 190.707 201.076 192.792 203.649 192.792H267.091C269.663 192.792 271.748 190.707 271.748 188.134V145.926C271.748 143.354 269.663 141.269 267.091 141.269Z" fill="white"/>
<path d="M260.621 185.676H210.119V148.396H211.026V184.759H260.621V185.676Z" fill="#C6B5F8"/>
<path d="M210.713 172.277L210.233 171.495L222.966 163.671L241.689 166.557L258.234 157.013L258.693 157.805L241.866 167.515L241.71 167.484L223.164 164.629L210.713 172.277Z" fill="#C6B5F8"/>
<path d="M223.632 166.233C224.737 166.233 225.633 165.338 225.633 164.233C225.633 163.128 224.737 162.232 223.632 162.232C222.527 162.232 221.632 163.128 221.632 164.233C221.632 165.338 222.527 166.233 223.632 166.233Z" fill="#C6B5F8"/>
<path d="M241.772 169.036C242.877 169.036 243.772 168.14 243.772 167.036C243.772 165.931 242.877 165.035 241.772 165.035C240.667 165.035 239.771 165.931 239.771 167.036C239.771 168.14 240.667 169.036 241.772 169.036Z" fill="#C6B5F8"/>
<path d="M258.12 159.711C259.224 159.711 260.12 158.815 260.12 157.71C260.12 156.606 259.224 155.71 258.12 155.71C257.015 155.71 256.119 156.606 256.119 157.71C256.119 158.815 257.015 159.711 258.12 159.711Z" fill="#C6B5F8"/>
<path opacity="0.28" d="M223.632 166.233C224.737 166.233 225.633 165.338 225.633 164.233C225.633 163.128 224.737 162.232 223.632 162.232C222.527 162.232 221.632 163.128 221.632 164.233C221.632 165.338 222.527 166.233 223.632 166.233Z" fill="#020202"/>
<path opacity="0.28" d="M241.772 169.036C242.877 169.036 243.772 168.14 243.772 167.036C243.772 165.931 242.877 165.035 241.772 165.035C240.667 165.035 239.771 165.931 239.771 167.036C239.771 168.14 240.667 169.036 241.772 169.036Z" fill="#020202"/>
<path opacity="0.28" d="M258.12 159.711C259.224 159.711 260.12 158.815 260.12 157.71C260.12 156.606 259.224 155.71 258.12 155.71C257.015 155.71 256.119 156.606 256.119 157.71C256.119 158.815 257.015 159.711 258.12 159.711Z" fill="#020202"/>
<path d="M265.184 205.711C265.184 205.711 250.712 233.062 248.003 241.657C245.294 250.253 245.544 275.582 245.544 275.582H253.421C253.421 275.582 253.421 250.024 256.766 245.721C260.11 241.418 278.75 219.454 278.75 219.454L265.184 205.711Z" fill="#473F47"/>
<path d="M263.58 209.035C263.58 209.035 272.353 244.46 276.896 252.389C281.438 260.318 293.858 274.603 293.858 274.603L300.547 271.019C300.547 271.019 283.345 248.451 284.304 241.845C285.262 235.239 287.7 209.963 287.7 209.963C287.7 209.963 275.583 203.388 263.58 209.035Z" fill="#473F47"/>
<path d="M293.327 158.127C293.327 158.127 300.318 161.701 297.713 170.297C295.108 178.893 286.867 198.252 287.763 203.982C288.659 209.713 287.7 209.9 287.7 209.9C287.7 209.9 269.311 216.527 263.58 209.004C263.58 209.004 274.52 170.297 276.844 165.462C279.167 160.628 285.804 155.273 293.327 158.127Z" fill="#C6B5F8"/>
<path d="M289.7 177.236C289.021 179.351 288.068 181.369 286.866 183.237C286.26 184.355 285.533 185.403 284.699 186.363C282.334 188.905 278.791 189.874 275.624 191.271C275.057 191.493 274.532 191.81 274.071 192.208C273.6 192.743 273.226 193.357 272.967 194.021C271.248 197.782 268.935 201.596 265.163 203.294C266.716 197.366 268.289 191.437 270.06 185.582C270.266 184.496 270.706 183.468 271.348 182.568C271.99 181.669 272.82 180.92 273.78 180.372C277.739 177.465 281.667 174.506 285.668 171.651C287.033 170.672 288.46 169.567 289.617 171.339C290.627 172.891 290.169 175.611 289.7 177.236Z" fill="url(#paint4_linear_1932_18957)"/>
<path d="M280.323 143.02C279.928 143.426 279.417 143.843 279.417 144.406C279.484 144.829 279.66 145.227 279.928 145.562C281.136 147.646 280.032 150.563 281.49 152.449C282.034 153.094 282.761 153.559 283.574 153.783C284.401 153.895 285.202 154.152 285.939 154.543C286.498 155.094 286.817 155.843 286.825 156.627C286.908 157.565 286.742 158.503 286.825 159.44C286.804 159.755 286.864 160.069 286.999 160.353C287.134 160.638 287.339 160.883 287.596 161.066C287.855 161.18 288.136 161.233 288.419 161.222C290.043 161.295 291.67 161.17 293.264 160.847C293.493 160.817 293.712 160.731 293.9 160.597C294.084 160.381 294.204 160.117 294.243 159.836C294.931 156.711 295.64 153.585 296.327 150.459C296.731 149.335 297.237 148.251 297.838 147.219C298.386 145.659 298.572 143.995 298.38 142.353C298.202 141.124 297.784 139.941 297.15 138.873C296.631 137.865 295.872 136.999 294.942 136.352C294.255 135.947 293.515 135.642 292.743 135.445C290.076 134.622 285.908 133.518 283.595 135.81C281.699 137.727 282.324 141.03 280.323 143.02Z" fill="#FCBDBA"/>
<path d="M280.042 146.521C280.615 146.166 282.47 146.906 283.168 146.896C285.366 146.833 287.159 147.938 288.919 146.583C290.357 145.541 290.93 143.676 291.43 141.967C291.441 141.874 291.441 141.78 291.43 141.686C291.41 141.567 291.364 141.453 291.295 141.353C290.482 140.165 288.826 140.04 287.429 139.696C284.939 138.976 282.701 137.572 280.97 135.643C280.511 135.248 280.202 134.707 280.094 134.111C280.12 133.767 280.228 133.434 280.41 133.141C280.591 132.847 280.84 132.601 281.136 132.424C282.917 131.298 285.071 130.924 287.127 131.382C289.154 131.85 291.154 132.427 293.118 133.111C295.015 133.643 296.973 133.966 298.859 134.57C299.262 134.685 299.645 134.861 299.995 135.091C300.456 135.456 300.814 135.933 301.037 136.477C301.371 137.161 301.545 137.913 301.545 138.675C301.545 139.437 301.371 140.189 301.037 140.873C300.901 141.074 300.799 141.296 300.735 141.53C300.724 141.766 300.756 142.003 300.828 142.228C301.297 144.312 300.266 146.396 299.266 148.198L296.661 153.053C296.397 153.639 296.005 154.159 295.515 154.575C295.267 154.777 294.959 154.892 294.64 154.903C294.32 154.914 294.005 154.821 293.743 154.637C293.202 154.168 293.17 153.231 292.535 152.918C292.32 152.847 292.091 152.825 291.866 152.852C291.641 152.879 291.425 152.955 291.232 153.074C290.086 153.627 289.149 154.502 288.023 155.158C286.078 156.242 283.786 156.523 281.636 155.94C281.005 155.783 280.415 155.492 279.907 155.085C278.792 154.127 278.865 152.845 279.094 151.543C279.323 150.24 278.865 147.25 280.042 146.521Z" fill="#473F47"/>
<path d="M291.701 171.62C291.701 171.62 284.179 190.968 254.317 194.667L253.275 190.5C253.275 190.5 273.218 182.612 277.521 174.61C278.757 172.362 279.826 170.025 280.719 167.619C282.074 163.868 286.419 161.847 289.899 163.795C291.962 164.952 293.243 167.244 291.701 171.62Z" fill="#C6B5F8"/>
<path d="M248.222 189.635C248.256 190.163 248.478 190.662 248.847 191.041C246.933 191.755 244.909 192.129 242.867 192.146C242.494 192.102 242.12 192.207 241.825 192.437C241.429 192.865 241.741 193.563 242.106 194.011C243.658 195.761 245.803 196.875 248.128 197.137C249.643 197.431 251.213 197.176 252.556 196.418C253.484 195.722 254.266 194.851 254.859 193.854C254.98 193.702 255.071 193.529 255.13 193.344C255.175 192.978 255.086 192.608 254.88 192.302C254.64 191.854 254.307 190.968 253.838 190.75C253.369 190.531 252.723 190.75 252.244 190.666C250.869 190.354 249.639 189.478 248.222 189.635Z" fill="#FCBDBA"/>
<path d="M306.09 275.114C306.241 275.222 306.363 275.364 306.448 275.529C306.533 275.694 306.577 275.876 306.577 276.062C306.577 276.247 306.533 276.43 306.448 276.595C306.363 276.76 306.241 276.902 306.09 277.01C302.856 280.494 298.983 283.324 294.681 285.345C293.493 285.898 291.858 286.293 291.045 285.262C290.232 284.23 291.097 282.668 291.785 281.48C292.713 279.886 293.282 278.107 293.452 276.27C293.453 275.641 293.577 275.018 293.816 274.436C294.66 272.884 298.807 271.311 300.526 271.311C302.808 271.29 304.694 273.53 306.09 275.114Z" fill="#C6B5F8"/>
<path d="M256.026 281.188C256.108 281.355 256.148 281.539 256.143 281.725C256.137 281.911 256.087 282.093 255.995 282.255C255.904 282.417 255.775 282.555 255.619 282.655C255.462 282.756 255.284 282.818 255.099 282.834C250.564 284.251 245.799 284.782 241.064 284.397C239.751 284.282 238.136 283.814 237.938 282.511C237.74 281.209 239.272 280.282 240.46 279.604C242.046 278.678 243.417 277.424 244.482 275.926C244.79 275.378 245.209 274.899 245.711 274.52C247.211 273.582 251.608 274.238 253.109 275.103C255.088 276.239 255.609 279.115 256.026 281.188Z" fill="#C6B5F8"/>
<path d="M60.3328 271.738C60.2883 273.066 60.5336 274.389 61.0517 275.614C61.7053 276.755 62.6899 277.67 63.8753 278.239C66.415 279.562 69.3676 279.854 72.1169 279.052C72.4899 278.977 72.8252 278.774 73.065 278.479C73.2071 278.229 73.2655 277.941 73.2317 277.656C73.0231 276.139 72.2535 274.756 71.0749 273.78C69.9004 272.823 68.8964 271.675 68.1055 270.383C66.8448 267.82 67.7825 261.006 62.9793 262.131C58.9679 263.038 60.2182 268.904 60.3328 271.738Z" fill="#FBB9AD"/>
<path d="M59.6664 276.333C59.6664 276.333 58.9788 278.02 59.8227 279C60.6667 279.979 69.3042 285.345 75.118 281.021C80.9319 276.697 67.2203 276.145 67.2203 276.145L59.6664 276.333Z" fill="#C6B5F8"/>
<path d="M60 272.436C60.2629 272.303 60.565 272.27 60.8504 272.343C61.1358 272.416 61.3851 272.589 61.5524 272.832C62.1195 273.478 62.8417 273.969 63.6511 274.259C64.4604 274.549 65.3302 274.628 66.1785 274.488C68.0748 274.04 68.825 271.852 69.7627 271.842C70.7004 271.831 75.7225 276.114 76.0142 277.947C76.3059 279.781 73.7324 281.136 70.8984 281.313C68.0644 281.49 61.6254 279.521 60.4063 278.031C59.8922 277.2 59.5867 276.257 59.5159 275.283C59.4451 274.309 59.6112 273.332 60 272.436V272.436Z" fill="white"/>
<path d="M43.8601 274.353C43.8045 275.683 44.0502 277.008 44.5791 278.229C45.2327 279.367 46.2176 280.28 47.4026 280.844C49.9385 282.168 52.8881 282.459 55.6338 281.657C56.0113 281.586 56.3511 281.383 56.5923 281.084C56.7296 280.836 56.7878 280.553 56.759 280.271C56.5485 278.755 55.7793 277.373 54.6023 276.395C53.4359 275.434 52.433 274.291 51.6328 273.009C50.3721 270.456 51.3098 263.632 46.5066 264.757C42.4952 265.674 43.7455 271.55 43.8601 274.353Z" fill="#FBB9AD"/>
<path d="M43.1938 278.969C43.1938 278.969 42.5061 280.646 43.3501 281.626C44.194 282.605 52.8107 287.971 58.6245 283.657C64.4384 279.344 50.7477 278.781 50.7477 278.781L43.1938 278.969Z" fill="#C6B5F8"/>
<path d="M43.5274 275.062C43.7919 274.932 44.0941 274.902 44.379 274.976C44.664 275.051 44.9126 275.225 45.0798 275.468C45.6438 276.118 46.3657 276.612 47.1759 276.902C47.9862 277.192 48.8575 277.269 49.7059 277.125C51.5918 276.666 52.3524 274.488 53.2797 274.478C54.207 274.468 59.2395 278.739 59.5312 280.573C59.8229 282.407 57.2494 283.762 54.4154 283.939C51.5814 284.116 45.1528 282.157 43.9337 280.667C43.417 279.835 43.11 278.891 43.0393 277.914C42.9685 276.938 43.136 275.959 43.5274 275.062V275.062Z" fill="white"/>
<path d="M40.412 203.44C40.412 203.44 39.5264 252.796 43.1731 269.258L52.4566 270.404L54.9884 202.951L40.412 203.44Z" fill="#473F47"/>
<path d="M66.0536 198.105C66.0536 198.105 73.4407 224.674 68.1374 267.424L58.8539 268.57L53.0088 200.419L66.0536 198.105Z" fill="#473F47"/>
<path d="M79.942 176.84C79.8378 178.632 79.2648 180.174 77.7123 180.695C77.5796 180.74 77.4438 180.775 77.306 180.8C74.4616 181.373 70.7211 179.205 68.1267 177.309C67.0391 176.527 65.9956 175.685 65.001 174.788V155.689L78.9001 169.88C79.6207 172.129 79.9725 174.479 79.942 176.84V176.84Z" fill="white"/>
<path d="M68.2312 177.226C68.2312 178.122 68.3458 179.018 68.3458 179.914C68.3458 184.832 67.2101 189.916 68.6688 194.751C69.1487 195.778 69.2945 196.929 69.0856 198.043C68.6585 198.937 67.9165 199.642 67.0018 200.023C62.657 202.398 57.6245 203.148 52.7484 203.815C49.06 204.336 43.8296 205.43 40.4225 203.44C38.9742 202.596 38.4845 201.023 38.0157 199.45C36.7122 194.365 35.9439 189.159 35.7235 183.915C35.7235 183.227 35.6193 182.55 35.588 181.831C35.3032 177.121 35.206 172.405 35.2963 167.682C35.3588 164.254 35.6297 160.555 37.8698 157.971C40.8393 154.533 46.5906 152.251 50.9667 151.449C52.3813 151.156 53.8315 151.075 55.2698 151.209C57.3066 151.532 59.2731 152.201 61.0837 153.189C63.2509 154.231 65.1784 155.168 66.2932 157.304C67.4635 159.783 68.2807 162.413 68.7209 165.119C69.1306 167.655 69.1867 170.236 68.8876 172.787C68.7626 174.037 68.4396 175.277 68.3146 176.517C68.2657 176.75 68.2378 176.987 68.2312 177.226V177.226Z" fill="white"/>
<path opacity="0.1" d="M48.1325 205.118C46.7051 205.534 43.4126 204.221 42.3186 204.076C41.6622 203.961 41.0683 203.628 40.4119 203.482C37.1507 202.669 36.7652 193.5 36.4526 191.031C35.6087 184.519 34.3063 177.767 34.2125 171.234C34.066 168.713 34.3586 166.185 35.0773 163.764C35.4432 162.555 36.0706 161.44 36.9151 160.501C37.7596 159.561 38.8004 158.818 39.9639 158.325C44.1315 156.825 45.3714 170.005 45.9445 172.735C46.5175 175.465 46.5905 180.299 48.393 182.487C50.1955 184.675 53.8005 185.082 56.1552 183.977C57.4216 183.341 58.4754 182.35 59.1878 181.126C59.9002 179.901 60.2403 178.495 60.1666 177.08C60.0243 176.099 59.9443 175.111 59.927 174.121C59.928 173.624 60.0707 173.137 60.3382 172.718C60.6058 172.299 60.9872 171.965 61.4377 171.755C61.8628 171.649 62.309 171.663 62.7266 171.795C63.1442 171.928 63.5168 172.174 63.8029 172.506C64.3581 173.189 64.7564 173.985 64.9698 174.839C65.5089 176.625 65.8581 178.462 66.0118 180.32C66.4285 184.727 65.7617 189.249 66.814 193.552C67.2849 194.89 67.5108 196.302 67.4809 197.72C67.2414 198.893 66.6051 199.948 65.679 200.707C64.753 201.466 63.5937 201.883 62.3963 201.888C61.1953 201.842 60.0231 201.506 58.9799 200.909C57.9366 200.312 57.0533 199.472 56.4053 198.46C56.1973 198.098 55.9171 197.782 55.5822 197.532C55.2084 197.345 54.7907 197.262 54.3736 197.293C52.3835 197.293 49.5287 197.751 48.8827 199.981C48.4242 201.575 49.5287 203.107 48.6639 204.753C48.5367 204.935 48.3479 205.064 48.1325 205.118V205.118Z" fill="#020202"/>
<path d="M59.4057 145.176C59.0593 145.867 58.4691 146.406 57.7491 146.687C56.8708 146.885 56.0347 147.238 55.2797 147.729V147.729C54.6677 148.392 54.278 149.23 54.1649 150.125L53.571 152.897L53.2584 154.293C53.2177 154.545 53.1331 154.789 53.0084 155.012C52.8325 155.208 52.6149 155.363 52.3714 155.464C52.128 155.565 51.865 155.61 51.6018 155.595C50.5037 155.641 49.4166 155.362 48.476 154.793C48.3115 154.721 48.1758 154.597 48.0905 154.439C48.008 154.245 47.9862 154.031 48.028 153.824L48.3718 149.834C48.5629 148.742 48.3908 147.619 47.8822 146.635C46.734 144.547 45.8818 142.31 45.3503 139.987C45.1644 139.342 45.1208 138.665 45.2224 138.001C45.3241 137.338 45.5687 136.704 45.9392 136.144C46.3098 135.584 46.7975 135.112 47.3686 134.759C47.9397 134.406 48.5806 134.182 49.2471 134.101C51.1962 133.502 53.2769 133.48 55.2381 134.038C55.9674 134.288 56.1862 134.788 56.53 135.445C57.0406 136.487 57.572 137.529 57.9575 138.57C58.343 139.612 58.8639 140.988 59.2494 142.238C59.6487 143.168 59.7041 144.209 59.4057 145.176V145.176Z" fill="#FBB9AD"/>
<path d="M88.9023 165.275C89.0273 165.066 89.267 164.858 89.4649 164.983C89.5457 165.064 89.6032 165.164 89.6316 165.275C89.7459 165.475 89.9113 165.641 90.1108 165.756C90.3103 165.872 90.5369 165.932 90.7673 165.931C91.2153 165.931 91.6842 165.858 92.1427 165.858C92.7417 165.877 93.3283 166.035 93.8562 166.319C94.3841 166.602 94.8389 167.005 95.185 167.494C95.8737 168.484 96.2577 169.654 96.2895 170.859C96.4121 171.943 96.1137 173.032 95.4559 173.902C94.414 175.121 92.5282 175.152 90.9132 175.1H89.4337C89.0841 175.146 88.7303 175.056 88.4453 174.848C88.1603 174.641 87.9658 174.332 87.9021 173.985C87.2977 172.516 86.2037 171.047 86.9539 169.567C87.7041 168.088 88.0063 166.317 88.9023 165.275Z" fill="#FBB9AD"/>
<path d="M59.8229 180.799V169.755C59.8226 169.323 59.9528 168.901 60.1963 168.544C60.4398 168.187 60.7854 167.912 61.1878 167.755L88.5381 156.867C89.9551 156.304 92.8412 157.992 92.8412 159.513L91.4971 185.071C91.4978 185.498 91.3713 185.915 91.1338 186.27C90.8962 186.624 90.5584 186.9 90.1635 187.061L64.1156 199.064C62.6882 199.648 59.7812 197.96 59.7812 196.428L59.8229 180.799Z" fill="#C6B5F8"/>
<path d="M59.8223 180.799V169.755C59.8122 169.322 59.9373 168.897 60.18 168.539C60.4228 168.18 60.7711 167.906 61.1768 167.755L88.5374 156.867C89.9544 156.304 92.8406 157.992 92.8406 159.513L91.4965 185.071C91.4958 185.498 91.3687 185.914 91.1314 186.268C90.894 186.623 90.5569 186.899 90.1628 187.061L64.115 199.064C62.698 199.648 59.791 197.96 59.791 196.428L59.8223 180.799Z" fill="url(#paint5_linear_1932_18957)"/>
<path d="M61.1875 181.445V170.401C61.1866 169.968 61.3163 169.544 61.5598 169.185C61.8032 168.826 62.1492 168.549 62.5524 168.39L89.9027 157.513C90.2298 157.382 90.5841 157.333 90.9346 157.37C91.285 157.408 91.6209 157.531 91.9129 157.728C92.2049 157.925 92.4441 158.191 92.6095 158.502C92.7749 158.814 92.8615 159.161 92.8617 159.513V185.749C92.861 186.175 92.734 186.592 92.4966 186.946C92.2592 187.3 91.9222 187.576 91.5281 187.739L64.1778 199.096C63.9152 199.204 63.6336 199.26 63.3493 199.26C63.065 199.26 62.7836 199.203 62.5211 199.094C62.2587 198.985 62.0205 198.824 61.8203 198.623C61.62 198.421 61.4616 198.181 61.3542 197.918C61.2434 197.658 61.1866 197.378 61.1875 197.095V181.445Z" fill="#C6B5F8"/>
<path d="M61.1875 170.401L79.942 180.049L92.3408 158.169C92.3408 158.169 92.82 157.888 92.82 159.513V185.748L61.1875 195.584V170.401Z" fill="url(#paint6_linear_1932_18957)"/>
<path d="M54.6857 135.278C54.4946 135.568 54.2479 135.816 53.9599 136.009C53.672 136.203 53.3484 136.336 53.0082 136.403C51.1536 136.799 50.0283 135.903 49.0906 138.06C48.7882 138.799 48.6945 139.606 48.8197 140.394C48.8197 140.561 49.4032 142.405 49.549 142.311C49.0697 142.655 48.6946 141.717 48.1737 141.446C47.6527 141.175 46.8817 141.967 47.0067 142.645C47.2242 143.31 47.6122 143.906 48.132 144.374C48.965 145.408 49.4239 146.693 49.4344 148.021C49.4344 148.323 49.3198 148.729 49.0072 148.74C48.6946 148.75 48.3508 148.313 48.1112 148.146C47.7295 147.89 47.329 147.664 46.913 147.469C45.6418 146.864 43.7247 146.677 42.662 145.822C42.1142 145.367 41.7452 144.732 41.62 144.03C41.62 143.864 41.62 142.072 41.9326 142.165C41.617 142.071 41.3232 141.915 41.0685 141.707C40.8137 141.498 40.6031 141.241 40.4489 140.95C40.2947 140.659 40.1999 140.34 40.1703 140.012C40.1406 139.684 40.1765 139.353 40.276 139.04V139.04C40.4159 138.598 40.6713 138.203 41.0157 137.893C39.7133 136.08 40.3177 133.392 41.8805 131.798C43.558 130.299 45.6808 129.391 47.9236 129.214C50.3602 128.83 52.8517 128.994 55.217 129.694C56.0377 129.921 56.7963 130.33 57.4363 130.892C57.7491 131.175 57.9891 131.529 58.136 131.924C58.2829 132.32 58.3324 132.745 58.2803 133.163C58.1426 133.219 57.9917 133.234 57.8456 133.207C57.6996 133.179 57.5647 133.109 57.4572 133.007C57.595 133.383 57.5781 133.798 57.4101 134.161C57.2421 134.525 56.9367 134.806 56.5611 134.945C56.2797 135.047 55.9744 135.064 55.6835 134.994C55.3925 134.923 55.1287 134.769 54.9253 134.549C54.9044 134.808 54.8223 135.058 54.6857 135.278V135.278Z" fill="#473F47"/>
<path d="M55.8735 147.271L55.5609 147.365C55.4672 147.374 55.3793 147.414 55.3108 147.479C55.2903 147.551 55.2903 147.627 55.3108 147.698C54.6988 148.361 54.3091 149.199 54.196 150.094L53.6021 152.866C52.5993 151.094 51.8421 149.195 51.3516 147.219C52.853 147.392 54.3684 147.41 55.8735 147.271V147.271Z" fill="#DC9F95"/>
<path d="M57.458 180.904C57.6333 180.688 57.8592 180.519 58.1155 180.412C58.3717 180.305 58.6505 180.262 58.9271 180.289C59.2411 180.447 59.5409 180.631 59.8231 180.841C60.089 180.96 60.376 181.023 60.6671 181.029C61.8452 181.113 63.0279 180.946 64.1366 180.539C64.6962 180.266 65.3067 180.113 65.9287 180.091C66.3006 180.163 66.6524 180.315 66.9599 180.537C67.2674 180.758 67.5235 181.043 67.7104 181.372C68.2649 182.168 68.5768 183.107 68.6082 184.076C68.6396 185.045 68.3893 186.002 67.8875 186.832C67.4221 187.506 66.8092 188.066 66.0954 188.468C64.5133 189.296 62.7552 189.732 60.9692 189.739C59.198 189.822 57.3955 189.739 55.6346 189.822C55.2175 189.898 54.787 189.84 54.4052 189.656C54.1941 189.459 54.0309 189.217 53.928 188.948C53.825 188.679 53.7851 188.39 53.8113 188.103C53.7488 186.759 53.5195 185.623 54.301 184.488C55.2831 183.233 56.3372 182.036 57.458 180.904V180.904Z" fill="#FBB9AD"/>
<path d="M37.89 157.981C37.89 157.981 18.3125 183.581 24.5014 192.625C30.6904 201.669 56.8008 191.135 56.8008 191.135L54.2585 183.644C54.2585 183.644 35.9208 185.967 35.7854 183.915C35.6499 181.862 47.4131 170.109 47.4131 170.109C47.4131 170.109 49.5178 152.907 37.89 157.981Z" fill="white"/>
</g>
<defs>
<linearGradient id="paint0_linear_1932_18957" x1="158.409" y1="189.447" x2="173.892" y2="321.021" gradientUnits="userSpaceOnUse">
<stop offset="0.01"/>
<stop offset="0.08" stop-opacity="0.69"/>
<stop offset="0.21" stop-opacity="0.32"/>
<stop offset="1" stop-opacity="0"/>
</linearGradient>
<linearGradient id="paint1_linear_1932_18957" x1="173.1" y1="179.247" x2="178.518" y2="253.546" gradientUnits="userSpaceOnUse">
<stop offset="0.01"/>
<stop offset="0.08" stop-opacity="0.69"/>
<stop offset="0.21" stop-opacity="0.32"/>
<stop offset="1" stop-opacity="0"/>
</linearGradient>
<linearGradient id="paint2_linear_1932_18957" x1="41.1199" y1="369.761" x2="444.622" y2="23.0223" gradientUnits="userSpaceOnUse">
<stop offset="0.01"/>
<stop offset="0.08" stop-opacity="0.69"/>
<stop offset="0.21" stop-opacity="0.32"/>
<stop offset="1" stop-opacity="0"/>
</linearGradient>
<linearGradient id="paint3_linear_1932_18957" x1="136.206" y1="96.8835" x2="197.481" y2="233.312" gradientUnits="userSpaceOnUse">
<stop offset="0.01"/>
<stop offset="0.08" stop-opacity="0.69"/>
<stop offset="0.21" stop-opacity="0.32"/>
<stop offset="1" stop-opacity="0"/>
</linearGradient>
<linearGradient id="paint4_linear_1932_18957" x1="251.535" y1="153.907" x2="315.748" y2="236.854" gradientUnits="userSpaceOnUse">
<stop offset="0.01"/>
<stop offset="0.08" stop-opacity="0.69"/>
<stop offset="0.21" stop-opacity="0.32"/>
<stop offset="1" stop-opacity="0"/>
</linearGradient>
<linearGradient id="paint5_linear_1932_18957" x1="54.1959" y1="153.282" x2="126.609" y2="234.125" gradientUnits="userSpaceOnUse">
<stop offset="0.01"/>
<stop offset="0.13" stop-opacity="0.69"/>
<stop offset="0.25" stop-opacity="0.32"/>
<stop offset="1" stop-opacity="0"/>
</linearGradient>
<linearGradient id="paint6_linear_1932_18957" x1="72.6486" y1="148.49" x2="83.745" y2="222.018" gradientUnits="userSpaceOnUse">
<stop offset="0.01"/>
<stop offset="0.13" stop-opacity="0.69"/>
<stop offset="0.25" stop-opacity="0.32"/>
<stop offset="1" stop-opacity="0"/>
</linearGradient>
<clipPath id="clip0_1932_18957">
<rect width="340" height="340" fill="white"/>
</clipPath>
</defs>
</svg>
