<?xml version="1.0" encoding="UTF-8"?> <svg xmlns="http://www.w3.org/2000/svg" width="480" height="431" viewBox="0 0 480 431" fill="none"> <path d="M332.31 427.35L202.87 427.28C195.394 427.275 188.227 424.301 182.942 419.013C177.658 413.725 174.69 406.556 174.69 399.08L174.75 74.55C174.75 70.843 175.481 67.1724 176.902 63.7483C178.322 60.3242 180.404 57.2139 183.028 54.5954C185.652 51.9769 188.767 49.9017 192.194 48.4886C195.621 47.0754 199.293 46.3521 203 46.36L332.45 46.44C339.926 46.4453 347.093 49.4187 352.377 54.7067C357.662 59.9946 360.63 67.1644 360.63 74.64L360.56 399.16C360.56 402.867 359.829 406.538 358.408 409.962C356.988 413.386 354.906 416.496 352.282 419.115C349.658 421.733 346.543 423.808 343.116 425.221C339.689 426.635 336.017 427.358 332.31 427.35V427.35Z" fill="#263238"></path> <path d="M332.27 57.92H307.17C305.518 57.9593 303.95 58.652 302.808 59.8461C301.667 61.0402 301.045 62.6383 301.08 64.29V68.84C301.115 70.4934 300.492 72.0929 299.348 73.2873C298.204 74.4817 296.633 75.1733 294.98 75.21H246.06C244.408 75.1707 242.84 74.478 241.698 73.2839C240.557 72.0898 239.935 70.4917 239.97 68.84V64.28C240.005 62.6283 239.383 61.0302 238.242 59.8361C237.1 58.642 235.531 57.9494 233.88 57.91H203.08C200.486 57.9087 197.918 58.4182 195.521 59.4096C193.124 60.4009 190.946 61.8545 189.112 63.6876C187.277 65.5206 185.821 67.6971 184.827 70.0928C183.833 72.4884 183.321 75.0564 183.32 77.65L183.26 394.41C183.276 399.635 185.363 404.641 189.063 408.33C192.763 412.019 197.775 414.09 203 414.09L332.19 414.17C334.783 414.171 337.351 413.662 339.747 412.67C342.143 411.679 344.321 410.225 346.155 408.392C347.989 406.559 349.444 404.382 350.436 401.986C351.429 399.591 351.94 397.023 351.94 394.43L352 77.67C352.001 75.0777 351.492 72.5105 350.501 70.1151C349.51 67.7196 348.057 65.5427 346.225 63.7088C344.393 61.8748 342.218 60.4197 339.823 59.4264C337.429 58.4332 334.862 57.9213 332.27 57.92V57.92Z" fill="white"></path> <path d="M334.52 237.38C335.65 237.118 336.813 237.031 337.97 237.12C338.53 237.12 339.06 237.12 339.52 237.12L339.28 237.35C339.236 236.701 339.318 236.049 339.52 235.43C339.715 236.05 339.793 236.701 339.75 237.35V237.57H339.51C339.05 237.57 338.51 237.57 337.96 237.57C336.81 237.675 335.651 237.611 334.52 237.38V237.38Z" fill="#E0E0E0"></path> <path d="M324.52 237.38C326.169 237.033 327.871 237.033 329.52 237.38C327.871 237.727 326.169 237.727 324.52 237.38Z" fill="#E0E0E0"></path> <path d="M314.52 237.38C316.169 237.033 317.871 237.033 319.52 237.38C317.871 237.727 316.169 237.727 314.52 237.38Z" fill="#E0E0E0"></path> <path d="M304.52 237.38C306.169 237.033 307.871 237.033 309.52 237.38C307.871 237.727 306.169 237.727 304.52 237.38Z" fill="#E0E0E0"></path> <path d="M294.52 237.38C296.169 237.033 297.871 237.033 299.52 237.38C297.871 237.727 296.169 237.727 294.52 237.38Z" fill="#E0E0E0"></path> <path d="M284.52 237.38C286.169 237.033 287.871 237.033 289.52 237.38C287.871 237.727 286.169 237.727 284.52 237.38V237.38Z" fill="#E0E0E0"></path> <path d="M274.52 237.38C276.169 237.033 277.871 237.033 279.52 237.38C277.871 237.727 276.169 237.727 274.52 237.38V237.38Z" fill="#E0E0E0"></path> <path d="M264.52 237.38C266.169 237.033 267.871 237.033 269.52 237.38C267.871 237.727 266.169 237.727 264.52 237.38Z" fill="#E0E0E0"></path> <path d="M254.52 237.38C256.169 237.033 257.871 237.033 259.52 237.38C257.871 237.727 256.169 237.727 254.52 237.38Z" fill="#E0E0E0"></path> <path d="M244.52 237.38C246.169 237.033 247.871 237.033 249.52 237.38C247.871 237.727 246.169 237.727 244.52 237.38V237.38Z" fill="#E0E0E0"></path> <path d="M234.52 237.38C236.169 237.033 237.871 237.033 239.52 237.38C237.871 237.727 236.169 237.727 234.52 237.38Z" fill="#E0E0E0"></path> <path d="M228.59 233.3C228.849 234.106 228.937 234.958 228.85 235.8C228.85 236.4 228.85 236.95 228.79 237.38L228.59 237.18C229.16 237.18 229.52 237.3 229.52 237.38C229.52 237.46 229.16 237.53 228.59 237.58H228.41V237.37C228.41 236.94 228.35 236.37 228.35 235.79C228.263 234.952 228.345 234.106 228.59 233.3V233.3Z" fill="#E0E0E0"></path> <path d="M228.59 223.3C228.937 224.949 228.937 226.651 228.59 228.3C228.243 226.651 228.243 224.949 228.59 223.3V223.3Z" fill="#E0E0E0"></path> <path d="M228.59 213.3C228.937 214.949 228.937 216.651 228.59 218.3C228.243 216.651 228.243 214.949 228.59 213.3V213.3Z" fill="#E0E0E0"></path> <path d="M228.59 203.3C228.937 204.949 228.937 206.651 228.59 208.3C228.243 206.651 228.243 204.949 228.59 203.3V203.3Z" fill="#E0E0E0"></path> <path d="M228.59 193.3C228.937 194.949 228.937 196.651 228.59 198.3C228.243 196.651 228.243 194.949 228.59 193.3V193.3Z" fill="#E0E0E0"></path> <path d="M232.63 187.34C231.824 187.599 230.972 187.688 230.13 187.6C229.55 187.6 229.01 187.6 228.59 187.6L228.8 187.39C228.75 187.98 228.68 188.39 228.59 188.39C228.5 188.39 228.44 188.02 228.39 187.39V187.21H228.61C229.03 187.21 229.61 187.15 230.15 187.15C230.981 187.048 231.824 187.113 232.63 187.34V187.34Z" fill="#E0E0E0"></path> <path d="M242.63 187.34C240.981 187.687 239.279 187.687 237.63 187.34C239.279 186.993 240.981 186.993 242.63 187.34V187.34Z" fill="#E0E0E0"></path> <path d="M252.63 187.34C250.981 187.687 249.279 187.687 247.63 187.34C249.279 186.993 250.981 186.993 252.63 187.34Z" fill="#E0E0E0"></path> <path d="M262.63 187.34C260.981 187.687 259.279 187.687 257.63 187.34C259.279 186.993 260.981 186.993 262.63 187.34Z" fill="#E0E0E0"></path> <path d="M272.63 187.34C270.981 187.687 269.279 187.687 267.63 187.34C269.279 186.993 270.981 186.993 272.63 187.34V187.34Z" fill="#E0E0E0"></path> <path d="M282.63 187.34C280.981 187.687 279.279 187.687 277.63 187.34C279.279 186.993 280.981 186.993 282.63 187.34Z" fill="#E0E0E0"></path> <path d="M292.63 187.34C290.981 187.687 289.279 187.687 287.63 187.34C289.279 186.993 290.981 186.993 292.63 187.34Z" fill="#E0E0E0"></path> <path d="M302.63 187.34C300.981 187.687 299.279 187.687 297.63 187.34C299.279 186.993 300.981 186.993 302.63 187.34Z" fill="#E0E0E0"></path> <path d="M312.63 187.34C310.981 187.687 309.279 187.687 307.63 187.34C309.279 186.993 310.981 186.993 312.63 187.34Z" fill="#E0E0E0"></path> <path d="M322.63 187.34C320.981 187.687 319.279 187.687 317.63 187.34C319.279 186.993 320.981 186.993 322.63 187.34Z" fill="#E0E0E0"></path> <path d="M332.63 187.34C330.981 187.687 329.279 187.687 327.63 187.34C329.279 186.993 330.981 186.993 332.63 187.34Z" fill="#E0E0E0"></path> <path d="M339.52 190.46C339.261 189.654 339.172 188.802 339.26 187.96V187.34L339.52 187.6C338.878 187.657 338.232 187.568 337.63 187.34C338.234 187.118 338.879 187.033 339.52 187.09H339.76V188C339.843 188.828 339.761 189.664 339.52 190.46V190.46Z" fill="#E0E0E0"></path> <path d="M339.52 200.46C339.173 198.811 339.173 197.109 339.52 195.46C339.867 197.109 339.867 198.811 339.52 200.46Z" fill="#E0E0E0"></path> <path d="M339.52 210.46C339.173 208.811 339.173 207.109 339.52 205.46C339.867 207.109 339.867 208.811 339.52 210.46V210.46Z" fill="#E0E0E0"></path> <path d="M339.52 220.46C339.173 218.811 339.173 217.109 339.52 215.46C339.867 217.109 339.867 218.811 339.52 220.46Z" fill="#E0E0E0"></path> <path d="M339.52 230.46C339.173 228.811 339.173 227.109 339.52 225.46C339.867 227.109 339.867 228.811 339.52 230.46V230.46Z" fill="#E0E0E0"></path> <path d="M322.3 215.23C322.3 215.865 322.112 216.486 321.759 217.013C321.406 217.541 320.905 217.953 320.318 218.196C319.732 218.439 319.086 218.502 318.464 218.378C317.841 218.254 317.269 217.949 316.82 217.5C316.371 217.051 316.065 216.479 315.942 215.856C315.818 215.234 315.881 214.588 316.124 214.002C316.367 213.415 316.779 212.914 317.306 212.561C317.834 212.208 318.455 212.02 319.09 212.02C319.512 212.019 319.93 212.101 320.32 212.262C320.71 212.423 321.064 212.659 321.363 212.957C321.661 213.256 321.897 213.61 322.058 214C322.219 214.39 322.301 214.808 322.3 215.23Z" fill="#263238"></path> <path d="M319.59 215.23H318.59V207.83C318.587 204.897 317.422 202.084 315.348 200.009C313.275 197.934 310.463 196.765 307.53 196.76H190.8V195.76H307.53C310.729 195.765 313.794 197.039 316.055 199.302C318.316 201.564 319.587 204.631 319.59 207.83V215.23Z" fill="#263238"></path> <path d="M240.36 146.58C241.166 146.321 242.018 146.232 242.86 146.32C242.34 146.84 242.72 146.46 242.6 146.57V146.08C242.6 145.93 242.6 145.78 242.6 145.61C242.6 145.44 242.6 145.04 242.66 144.82C242.66 144.37 242.77 144.09 242.84 144.09C242.91 144.09 242.98 144.37 243.03 144.82C243.03 145.04 243.03 145.31 243.03 145.61V146.08V146.57C242.92 146.69 243.29 146.32 242.77 146.84C241.957 146.91 241.139 146.822 240.36 146.58V146.58Z" fill="#E0E0E0"></path> <path d="M230.38 146.58C232.028 146.232 233.731 146.232 235.38 146.58C233.731 146.928 232.028 146.928 230.38 146.58Z" fill="#E0E0E0"></path> <path d="M220.4 146.58C222.048 146.232 223.751 146.232 225.4 146.58C223.751 146.928 222.048 146.928 220.4 146.58Z" fill="#E0E0E0"></path> <path d="M210.42 146.58C212.068 146.232 213.771 146.232 215.42 146.58C213.771 146.928 212.068 146.928 210.42 146.58Z" fill="#E0E0E0"></path> <path d="M200.44 146.58C202.088 146.232 203.791 146.232 205.44 146.58C203.791 146.928 202.088 146.928 200.44 146.58Z" fill="#E0E0E0"></path> <path d="M193 144.08C193.253 144.887 193.342 145.738 193.26 146.58L193 146.32H193.5H193.97H194.77C195.22 146.37 195.5 146.43 195.5 146.51C195.5 146.59 195.22 146.64 194.77 146.69L193.97 146.75H192.97L192.71 146.49C192.644 145.675 192.743 144.856 193 144.08Z" fill="#E0E0E0"></path> <path d="M193 134.62C193.254 135.379 193.342 136.184 193.26 136.98C193.342 137.779 193.253 138.587 193 139.35C192.741 138.589 192.652 137.78 192.74 136.98C192.652 136.184 192.741 135.378 193 134.62Z" fill="#E0E0E0"></path> <path d="M193 125.15C193.347 126.711 193.347 128.329 193 129.89C192.653 128.329 192.653 126.711 193 125.15V125.15Z" fill="#E0E0E0"></path> <path d="M193 115.69C193.253 116.453 193.342 117.261 193.26 118.06C193.342 118.856 193.254 119.661 193 120.42C192.741 119.662 192.652 118.856 192.74 118.06C192.652 117.26 192.741 116.451 193 115.69V115.69Z" fill="#E0E0E0"></path> <path d="M193 106.23C193.253 106.993 193.342 107.801 193.26 108.6C193.348 109.409 193.259 110.228 193 111C192.741 110.242 192.652 109.436 192.74 108.64C192.646 107.827 192.735 107.004 193 106.23V106.23Z" fill="#E0E0E0"></path> <path d="M195.45 99C194.644 99.259 193.792 99.3475 192.95 99.26L193.21 99V100C193.21 100.3 193.21 100.57 193.15 100.79C193.15 101.24 193.04 101.52 192.97 101.52C192.9 101.52 192.83 101.24 192.78 100.79C192.78 100.57 192.78 100.3 192.78 100V99.53V99L193.04 98.74C193.852 98.6701 194.671 98.7584 195.45 99V99Z" fill="#E0E0E0"></path> <path d="M205.43 99C203.781 99.3481 202.078 99.3481 200.43 99C202.078 98.6519 203.781 98.6519 205.43 99Z" fill="#E0E0E0"></path> <path d="M215.41 99C213.761 99.3481 212.058 99.3481 210.41 99C212.058 98.6519 213.761 98.6519 215.41 99Z" fill="#E0E0E0"></path> <path d="M225.39 99C223.741 99.3481 222.038 99.3481 220.39 99C222.038 98.6519 223.741 98.6519 225.39 99Z" fill="#E0E0E0"></path> <path d="M235.37 99C233.721 99.3481 232.018 99.3481 230.37 99C232.018 98.6519 233.721 98.6519 235.37 99Z" fill="#E0E0E0"></path> <path d="M242.86 101.5C242.607 100.693 242.518 99.8423 242.6 99L242.86 99.26H242.36H241.89L241.09 99.21C240.64 99.16 240.36 99.1 240.36 99.02C240.36 98.94 240.64 98.89 241.09 98.84L241.89 98.78H242.89L243.15 99.04C243.222 99.8712 243.124 100.708 242.86 101.5V101.5Z" fill="#E0E0E0"></path> <path d="M242.86 111C242.606 110.241 242.518 109.436 242.6 108.64C242.518 107.841 242.607 107.033 242.86 106.27C243.119 107.031 243.208 107.84 243.12 108.64C243.208 109.436 243.119 110.242 242.86 111V111Z" fill="#E0E0E0"></path> <path d="M242.86 120.42C242.606 119.661 242.518 118.856 242.6 118.06C242.518 117.261 242.607 116.453 242.86 115.69C243.119 116.451 243.208 117.26 243.12 118.06C243.208 118.856 243.119 119.662 242.86 120.42V120.42Z" fill="#E0E0E0"></path> <path d="M242.86 129.89C242.513 128.329 242.513 126.711 242.86 125.15C243.207 126.711 243.207 128.329 242.86 129.89V129.89Z" fill="#E0E0E0"></path> <path d="M242.86 139.35C242.607 138.587 242.518 137.779 242.6 136.98C242.518 136.184 242.606 135.379 242.86 134.62C243.119 135.378 243.208 136.184 243.12 136.98C243.208 137.78 243.119 138.589 242.86 139.35Z" fill="#E0E0E0"></path> <path d="M340.43 178.27C341.236 178.011 342.088 177.922 342.93 178.01C342.41 178.53 342.78 178.15 342.67 178.26V177.77V177.3C342.67 177 342.67 176.73 342.72 176.51C342.77 176.06 342.84 175.78 342.91 175.78C342.98 175.78 343.05 176.06 343.09 176.51C343.09 176.73 343.09 177 343.15 177.3C343.21 177.6 343.15 177.62 343.15 177.77V178.26C343.03 178.38 343.41 178.01 342.89 178.53C342.061 178.606 341.225 178.518 340.43 178.27Z" fill="#E0E0E0"></path> <path d="M330.2 178.27C331.886 177.923 333.624 177.923 335.31 178.27C333.624 178.617 331.886 178.617 330.2 178.27Z" fill="#E0E0E0"></path> <path d="M320 178.27C321.689 177.923 323.431 177.923 325.12 178.27C323.431 178.617 321.689 178.617 320 178.27V178.27Z" fill="#E0E0E0"></path> <path d="M309.73 178.27C311.419 177.923 313.161 177.923 314.85 178.27C313.161 178.617 311.419 178.617 309.73 178.27V178.27Z" fill="#E0E0E0"></path> <path d="M299.5 178.27C301.189 177.923 302.931 177.923 304.62 178.27C302.931 178.617 301.189 178.617 299.5 178.27V178.27Z" fill="#E0E0E0"></path> <path d="M289.27 178.27C290.959 177.923 292.701 177.923 294.39 178.27C292.701 178.617 290.959 178.617 289.27 178.27V178.27Z" fill="#E0E0E0"></path> <path d="M279 178.27C280.686 177.923 282.424 177.923 284.11 178.27C282.424 178.617 280.686 178.617 279 178.27Z" fill="#E0E0E0"></path> <path d="M268.81 178.27C270.496 177.923 272.234 177.923 273.92 178.27C272.234 178.617 270.496 178.617 268.81 178.27Z" fill="#E0E0E0"></path> <path d="M258.57 178.27C260.259 177.923 262.001 177.923 263.69 178.27C262.001 178.617 260.259 178.617 258.57 178.27V178.27Z" fill="#E0E0E0"></path> <path d="M251 175.77C251.254 176.577 251.343 177.428 251.26 178.27L251 178H251.5H251.97L252.77 178.05C253.22 178.05 253.5 178.16 253.5 178.24C253.5 178.32 253.22 178.37 252.77 178.42L251.97 178.48H250.97L250.71 178.22C250.638 177.392 250.737 176.558 251 175.77V175.77Z" fill="#E0E0E0"></path> <path d="M251 165.81C251.35 167.458 251.35 169.162 251 170.81C250.65 169.162 250.65 167.458 251 165.81V165.81Z" fill="#E0E0E0"></path> <path d="M251 155.86C251.35 157.508 251.35 159.212 251 160.86C250.65 159.212 250.65 157.508 251 155.86V155.86Z" fill="#E0E0E0"></path> <path d="M251 145.91C251.35 147.558 251.35 149.262 251 150.91C250.65 149.262 250.65 147.558 251 145.91V145.91Z" fill="#E0E0E0"></path> <path d="M251 136C251.35 137.648 251.35 139.352 251 141C250.65 139.352 250.65 137.648 251 136V136Z" fill="#E0E0E0"></path> <path d="M251 126C251.35 127.648 251.35 129.352 251 131C250.65 129.352 250.65 127.648 251 126V126Z" fill="#E0E0E0"></path> <path d="M251 116.06C251.35 117.708 251.35 119.412 251 121.06C250.65 119.412 250.65 117.708 251 116.06V116.06Z" fill="#E0E0E0"></path> <path d="M251 106.11C251.35 107.758 251.35 109.462 251 111.11C250.65 109.462 250.65 107.758 251 106.11V106.11Z" fill="#E0E0E0"></path> <path d="M253.46 98.64C252.653 98.8934 251.802 98.9819 250.96 98.9L251.22 98.64V99.64C251.22 99.94 251.22 100.21 251.16 100.43C251.16 100.89 251.05 101.17 250.98 101.17C250.91 101.17 250.84 100.89 250.79 100.43C250.79 100.21 250.79 99.94 250.74 99.64V99.17V98.68L251 98.42C251.826 98.3251 252.664 98.4 253.46 98.64V98.64Z" fill="#E0E0E0"></path> <path d="M263.69 98.64C262.001 98.9867 260.259 98.9867 258.57 98.64C260.259 98.2932 262.001 98.2932 263.69 98.64Z" fill="#E0E0E0"></path> <path d="M273.92 98.64C272.234 98.9868 270.496 98.9868 268.81 98.64C270.496 98.2932 272.234 98.2932 273.92 98.64Z" fill="#E0E0E0"></path> <path d="M284.15 98.64C282.464 98.9868 280.726 98.9868 279.04 98.64C280.726 98.2932 282.464 98.2932 284.15 98.64Z" fill="#E0E0E0"></path> <path d="M294.39 98.64C292.701 98.9867 290.959 98.9867 289.27 98.64C290.959 98.2932 292.701 98.2932 294.39 98.64Z" fill="#E0E0E0"></path> <path d="M304.62 98.64C302.931 98.9867 301.189 98.9867 299.5 98.64C301.189 98.2932 302.931 98.2932 304.62 98.64Z" fill="#E0E0E0"></path> <path d="M314.85 98.64C313.161 98.9867 311.419 98.9867 309.73 98.64C311.419 98.2932 313.161 98.2932 314.85 98.64V98.64Z" fill="#E0E0E0"></path> <path d="M325.08 98.64C323.391 98.9867 321.649 98.9867 319.96 98.64C321.649 98.2932 323.391 98.2932 325.08 98.64Z" fill="#E0E0E0"></path> <path d="M335.31 98.64C333.624 98.9868 331.886 98.9868 330.2 98.64C331.886 98.2932 333.624 98.2932 335.31 98.64Z" fill="#E0E0E0"></path> <path d="M342.93 101.14C342.671 100.334 342.582 99.4823 342.67 98.64L342.93 98.9H341.93L341.13 98.84C340.68 98.84 340.4 98.73 340.4 98.66C340.4 98.59 340.68 98.52 341.13 98.47H341.93H342.39H342.9L343.16 98.73C343.24 99.5406 343.161 100.359 342.93 101.14Z" fill="#E0E0E0"></path> <path d="M342.93 111.09C342.58 109.442 342.58 107.738 342.93 106.09C343.279 107.738 343.279 109.442 342.93 111.09V111.09Z" fill="#E0E0E0"></path> <path d="M342.93 121C342.58 119.352 342.58 117.648 342.93 116C343.279 117.648 343.279 119.352 342.93 121V121Z" fill="#E0E0E0"></path> <path d="M342.93 131C342.58 129.352 342.58 127.648 342.93 126C343.279 127.648 343.279 129.352 342.93 131V131Z" fill="#E0E0E0"></path> <path d="M342.93 140.94C342.58 139.292 342.58 137.588 342.93 135.94C343.279 137.588 343.279 139.292 342.93 140.94V140.94Z" fill="#E0E0E0"></path> <path d="M342.93 150.89C342.58 149.242 342.58 147.538 342.93 145.89C343.279 147.538 343.279 149.242 342.93 150.89V150.89Z" fill="#E0E0E0"></path> <path d="M342.93 160.84C342.58 159.192 342.58 157.488 342.93 155.84C343.279 157.488 343.279 159.192 342.93 160.84V160.84Z" fill="#E0E0E0"></path> <path d="M342.93 170.79C342.58 169.142 342.58 167.438 342.93 165.79C343.279 167.438 343.279 169.142 342.93 170.79V170.79Z" fill="#E0E0E0"></path> <path d="M335.55 398.16C337.199 397.813 338.901 397.813 340.55 398.16C338.901 398.507 337.199 398.507 335.55 398.16V398.16Z" fill="#E0E0E0"></path> <path d="M325.55 398.16C327.199 397.813 328.901 397.813 330.55 398.16C328.901 398.507 327.199 398.507 325.55 398.16V398.16Z" fill="#E0E0E0"></path> <path d="M315.55 398.16C317.199 397.813 318.901 397.813 320.55 398.16C318.901 398.507 317.199 398.507 315.55 398.16Z" fill="#E0E0E0"></path> <path d="M305.55 398.16C307.199 397.813 308.901 397.813 310.55 398.16C308.901 398.507 307.199 398.507 305.55 398.16Z" fill="#E0E0E0"></path> <path d="M295.55 398.16C297.199 397.813 298.901 397.813 300.55 398.16C298.901 398.507 297.199 398.507 295.55 398.16Z" fill="#E0E0E0"></path> <path d="M285.55 398.16C287.199 397.813 288.901 397.813 290.55 398.16C288.901 398.507 287.199 398.507 285.55 398.16Z" fill="#E0E0E0"></path> <path d="M275.55 398.16C277.199 397.813 278.901 397.813 280.55 398.16C278.901 398.507 277.199 398.507 275.55 398.16Z" fill="#E0E0E0"></path> <path d="M265.55 398.16C267.199 397.813 268.901 397.813 270.55 398.16C268.901 398.507 267.199 398.507 265.55 398.16V398.16Z" fill="#E0E0E0"></path> <path d="M255.55 398.16C257.199 397.813 258.901 397.813 260.55 398.16C258.901 398.507 257.199 398.507 255.55 398.16V398.16Z" fill="#E0E0E0"></path> <path d="M245.55 398.16C247.199 397.813 248.901 397.813 250.55 398.16C248.901 398.507 247.199 398.507 245.55 398.16Z" fill="#E0E0E0"></path> <path d="M235.55 398.16C237.199 397.813 238.901 397.813 240.55 398.16C238.901 398.507 237.199 398.507 235.55 398.16V398.16Z" fill="#E0E0E0"></path> <path d="M225.55 398.16C227.199 397.813 228.901 397.813 230.55 398.16C228.901 398.507 227.199 398.507 225.55 398.16V398.16Z" fill="#E0E0E0"></path> <path d="M215.55 398.16C217.199 397.813 218.901 397.813 220.55 398.16C218.901 398.507 217.199 398.507 215.55 398.16Z" fill="#E0E0E0"></path> <path d="M205.55 398.16C207.199 397.813 208.901 397.813 210.55 398.16C208.901 398.507 207.199 398.507 205.55 398.16Z" fill="#E0E0E0"></path> <path d="M200.17 393.54C200.429 394.346 200.517 395.198 200.43 396.04C200.439 396.749 200.399 397.457 200.31 398.16L200.17 398.03C200.41 398.03 200.55 398.11 200.55 398.16C200.55 398.21 200.41 398.26 200.17 398.3H200.06V398.14C199.961 397.438 199.917 396.729 199.93 396.02C199.844 395.186 199.926 394.342 200.17 393.54V393.54Z" fill="#E0E0E0"></path> <path d="M200.17 383.54C200.517 385.189 200.517 386.891 200.17 388.54C199.823 386.891 199.823 385.189 200.17 383.54V383.54Z" fill="#E0E0E0"></path> <path d="M200.17 373.54C200.517 375.189 200.517 376.891 200.17 378.54C199.823 376.891 199.823 375.189 200.17 373.54V373.54Z" fill="#E0E0E0"></path> <path d="M200.91 364.27C200.91 364.34 200.63 364.41 200.17 364.45L200.36 364.27C200.413 364.858 200.437 365.449 200.43 366.04C200.517 366.882 200.429 367.734 200.17 368.54C199.917 367.733 199.828 366.882 199.91 366.04C199.906 365.449 199.933 364.858 199.99 364.27V364.07H200.15C200.63 364.13 200.91 364.2 200.91 364.27Z" fill="#E0E0E0"></path> <path d="M210.91 364.27C209.261 364.617 207.559 364.617 205.91 364.27C207.559 363.923 209.261 363.923 210.91 364.27Z" fill="#E0E0E0"></path> <path d="M220.91 364.27C219.261 364.617 217.559 364.617 215.91 364.27C217.559 363.923 219.261 363.923 220.91 364.27Z" fill="#E0E0E0"></path> <path d="M230.91 364.27C229.261 364.617 227.559 364.617 225.91 364.27C227.559 363.923 229.261 363.923 230.91 364.27V364.27Z" fill="#E0E0E0"></path> <path d="M240.91 364.27C239.261 364.617 237.559 364.617 235.91 364.27C237.559 363.923 239.261 363.923 240.91 364.27Z" fill="#E0E0E0"></path> <path d="M250.91 364.27C249.261 364.617 247.559 364.617 245.91 364.27C247.559 363.923 249.261 363.923 250.91 364.27Z" fill="#E0E0E0"></path> <path d="M260.91 364.27C259.261 364.617 257.559 364.617 255.91 364.27C257.559 363.923 259.261 363.923 260.91 364.27V364.27Z" fill="#E0E0E0"></path> <path d="M270.91 364.27C269.261 364.617 267.559 364.617 265.91 364.27C267.559 363.923 269.261 363.923 270.91 364.27Z" fill="#E0E0E0"></path> <path d="M280.91 364.27C279.261 364.617 277.559 364.617 275.91 364.27C277.559 363.923 279.261 363.923 280.91 364.27V364.27Z" fill="#E0E0E0"></path> <path d="M290.91 364.27C289.261 364.617 287.559 364.617 285.91 364.27C287.559 363.923 289.261 363.923 290.91 364.27Z" fill="#E0E0E0"></path> <path d="M300.91 364.27C299.261 364.617 297.559 364.617 295.91 364.27C297.559 363.923 299.261 363.923 300.91 364.27Z" fill="#E0E0E0"></path> <path d="M310.91 364.27C309.261 364.617 307.559 364.617 305.91 364.27C307.559 363.923 309.261 363.923 310.91 364.27Z" fill="#E0E0E0"></path> <path d="M320.91 364.27C319.261 364.617 317.559 364.617 315.91 364.27C317.559 363.923 319.261 363.923 320.91 364.27Z" fill="#E0E0E0"></path> <path d="M330.91 364.27C329.261 364.617 327.559 364.617 325.91 364.27C327.559 363.923 329.261 363.923 330.91 364.27Z" fill="#E0E0E0"></path> <path d="M340.55 364.63C340.5 364.63 340.46 364.5 340.42 364.27L340.55 364.4C339.841 364.499 339.126 364.543 338.41 364.53C337.568 364.613 336.717 364.525 335.91 364.27C336.717 364.015 337.568 363.927 338.41 364.01C339.126 363.997 339.841 364.041 340.55 364.14H340.7V364.25C340.64 364.5 340.6 364.63 340.55 364.63Z" fill="#E0E0E0"></path> <path d="M340.55 374.63C340.203 372.981 340.203 371.279 340.55 369.63C340.897 371.279 340.897 372.981 340.55 374.63Z" fill="#E0E0E0"></path> <path d="M340.55 384.63C340.203 382.981 340.203 381.279 340.55 379.63C340.897 381.279 340.897 382.981 340.55 384.63Z" fill="#E0E0E0"></path> <path d="M340.55 394.63C340.203 392.981 340.203 391.279 340.55 389.63C340.897 391.279 340.897 392.981 340.55 394.63Z" fill="#E0E0E0"></path> <path d="M300.59 252.95H148.33C143.983 252.95 140.46 256.474 140.46 260.82V349.21C140.46 353.556 143.983 357.08 148.33 357.08H300.59C304.936 357.08 308.46 353.556 308.46 349.21V260.82C308.46 256.474 304.936 252.95 300.59 252.95Z" fill="#455A64"></path> <path d="M243.714 307.022C246.166 297.183 240.177 287.219 230.338 284.768C220.498 282.317 210.535 288.306 208.084 298.145C205.632 307.984 211.621 317.947 221.46 320.399C231.3 322.85 241.263 316.861 243.714 307.022Z" fill="#E7315E"></path> <path d="M221.47 307.93V297.09C221.47 296.973 221.5 296.857 221.558 296.755C221.616 296.653 221.699 296.567 221.8 296.507C221.901 296.446 222.015 296.413 222.133 296.41C222.25 296.407 222.366 296.435 222.47 296.49L232.16 301.95C232.266 302.01 232.354 302.097 232.416 302.203C232.477 302.308 232.509 302.428 232.509 302.55C232.509 302.672 232.477 302.792 232.416 302.897C232.354 303.003 232.266 303.09 232.16 303.15L222.48 308.53C222.376 308.585 222.259 308.612 222.141 308.608C222.024 308.605 221.909 308.572 221.807 308.512C221.706 308.452 221.622 308.367 221.563 308.265C221.504 308.163 221.472 308.048 221.47 307.93V307.93Z" fill="white"></path> <path d="M286.23 344.31H156.11V344.9H286.23V344.31Z" fill="white"></path> <path d="M196.67 343.67H156.01V345.25H196.67V343.67Z" fill="#E7315E"></path> <path d="M198 344.61C198 345.006 197.883 345.392 197.663 345.721C197.443 346.05 197.131 346.306 196.765 346.458C196.4 346.609 195.998 346.649 195.61 346.572C195.222 346.494 194.865 346.304 194.586 346.024C194.306 345.744 194.116 345.388 194.038 345C193.961 344.612 194.001 344.21 194.152 343.845C194.304 343.479 194.56 343.167 194.889 342.947C195.218 342.727 195.604 342.61 196 342.61C196.53 342.61 197.039 342.821 197.414 343.196C197.789 343.571 198 344.08 198 344.61Z" fill="#E7315E"></path> <path d="M296.11 344.16H295.52V342.45H297.23V343.04H296.11V344.16Z" fill="white"></path> <path d="M297.23 346.39H295.52V344.68H296.11V345.8H297.23V346.39Z" fill="white"></path> <path d="M299.95 346.39H298.24V345.8H299.36V344.68H299.95V346.39Z" fill="white"></path> <path d="M299.95 344.16H299.36V343.04H298.24V342.45H299.95V344.16Z" fill="white"></path> <path d="M327 327.64C327 328.275 326.812 328.895 326.459 329.423C326.106 329.951 325.605 330.363 325.018 330.606C324.432 330.849 323.786 330.912 323.164 330.788C322.541 330.664 321.969 330.359 321.52 329.91C321.071 329.461 320.766 328.889 320.642 328.266C320.518 327.644 320.581 326.998 320.824 326.412C321.067 325.825 321.479 325.324 322.007 324.971C322.534 324.618 323.155 324.43 323.79 324.43C324.641 324.43 325.458 324.768 326.06 325.37C326.662 325.972 327 326.789 327 327.64Z" fill="#263238"></path> <path d="M265.66 389.44C265.66 390.075 265.472 390.696 265.119 391.223C264.766 391.751 264.265 392.163 263.678 392.406C263.092 392.649 262.446 392.712 261.824 392.588C261.201 392.464 260.629 392.159 260.18 391.71C259.731 391.261 259.426 390.689 259.302 390.066C259.178 389.444 259.241 388.798 259.484 388.212C259.727 387.625 260.139 387.124 260.667 386.771C261.194 386.418 261.815 386.23 262.45 386.23C263.301 386.23 264.118 386.568 264.72 387.17C265.322 387.772 265.66 388.589 265.66 389.44Z" fill="#263238"></path> <path d="M304.68 377.68H240.28C235.08 377.675 230.094 375.607 226.416 371.931C222.738 368.255 220.668 363.27 220.66 358.07V357.07H221.66V358.07C221.668 363.005 223.632 367.735 227.123 371.224C230.613 374.713 235.345 376.675 240.28 376.68H304.68C309.614 376.675 314.344 374.712 317.833 371.223C321.322 367.735 323.285 363.004 323.29 358.07V326.46H324.29V358.07C324.285 363.269 322.217 368.254 318.54 371.931C314.864 375.607 309.879 377.675 304.68 377.68Z" fill="#263238"></path> <path d="M262.95 376.81H261.95V388.72H262.95V376.81Z" fill="#263238"></path> <path d="M81.1501 394.37L80.4601 427.69L124.32 428.69C124.17 424.69 101.68 416.24 101.68 416.24L103.06 394.91L81.1501 394.37Z" fill="#455A64"></path> <g opacity="0.6"> <path opacity="0.6" d="M88.17 414.15C87.7532 414.246 87.3883 414.497 87.1489 414.851C86.9095 415.205 86.8134 415.637 86.88 416.06C86.9975 416.478 87.2691 416.837 87.6402 417.063C88.0112 417.289 88.4542 417.367 88.88 417.28C89.3169 417.179 89.6997 416.917 89.9518 416.546C90.204 416.176 90.3069 415.723 90.24 415.28C90.0713 414.851 89.7469 414.501 89.3316 414.301C88.9163 414.101 88.4408 414.065 88 414.2" fill="white"></path> </g> <g opacity="0.6"> <path opacity="0.6" d="M80.4601 427.69L80.6701 424.33L122.67 426.58C122.67 426.58 124.6 427.42 124.35 428.72L80.4601 427.69Z" fill="white"></path> </g> <path d="M102.4 416.08C102.4 416.28 101.31 416.34 100.24 416.97C99.17 417.6 98.59 418.43 98.39 418.35C98.19 418.27 98.55 417.1 99.86 416.35C101.17 415.6 102.45 415.89 102.4 416.08Z" fill="#263238"></path> <path d="M107 418C107.05 418.2 106.11 418.52 105.36 419.36C104.61 420.2 104.36 421.1 104.16 421.09C103.96 421.08 103.84 419.92 104.8 418.9C105.76 417.88 107 417.79 107 418Z" fill="#263238"></path> <path d="M109.43 423.25C109.23 423.25 108.96 422.25 109.54 421.17C110.12 420.09 111.13 419.66 111.22 419.83C111.31 420 110.67 420.58 110.22 421.48C109.77 422.38 109.64 423.23 109.43 423.25Z" fill="#263238"></path> <path d="M102.14 411.18C102.05 411.36 101.07 411.06 99.8601 411.11C98.6501 411.16 97.6901 411.5 97.5901 411.32C97.4901 411.14 98.4101 410.44 99.8401 410.41C101.27 410.38 102.25 411 102.14 411.18Z" fill="#263238"></path> <path d="M101.23 406.24C100.503 406.406 99.7465 406.386 99.03 406.18C98.2445 406.025 97.4795 405.78 96.75 405.45C96.3207 405.262 95.9062 405.041 95.51 404.79C95.2697 404.657 95.0507 404.488 94.86 404.29C94.7211 404.148 94.6376 403.961 94.6248 403.763C94.6119 403.565 94.6706 403.369 94.79 403.21C94.91 403.063 95.0632 402.946 95.237 402.87C95.4109 402.793 95.6004 402.759 95.79 402.77C96.0683 402.773 96.3446 402.816 96.61 402.9C97.8512 403.208 98.9979 403.816 99.95 404.67C100.95 405.59 101.28 406.35 101.2 406.39C101.12 406.43 100.62 405.81 99.61 405.05C99.0136 404.609 98.3654 404.243 97.68 403.96C97.2706 403.795 96.8494 403.662 96.42 403.56C95.96 403.44 95.57 403.43 95.42 403.62C95.27 403.81 95.42 403.72 95.47 403.85C95.609 403.994 95.7672 404.119 95.94 404.22C96.3114 404.457 96.6953 404.674 97.09 404.87C97.7631 405.208 98.4661 405.482 99.19 405.69C99.8818 405.827 100.563 406.01 101.23 406.24V406.24Z" fill="#263238"></path> <path d="M100.94 406.52C100.86 406.52 100.46 405.82 100.41 404.52C100.401 403.752 100.523 402.988 100.77 402.26C100.923 401.822 101.124 401.403 101.37 401.01C101.505 400.736 101.707 400.501 101.957 400.326C102.207 400.151 102.497 400.043 102.8 400.01C102.993 400.014 103.18 400.074 103.34 400.182C103.5 400.29 103.625 400.442 103.7 400.62C103.808 400.861 103.876 401.117 103.9 401.38C103.976 401.844 103.976 402.316 103.9 402.78C103.757 403.562 103.412 404.293 102.9 404.9C102.02 405.96 101.12 406.18 101.1 406.11C101.08 406.04 101.79 405.63 102.47 404.61C102.863 404.032 103.119 403.372 103.22 402.68C103.28 402.282 103.28 401.878 103.22 401.48C103.16 401.04 103 400.68 102.82 400.72C102.64 400.76 102.22 401.03 102.04 401.38C101.812 401.731 101.618 402.102 101.46 402.49C101.202 403.154 101.04 403.851 100.98 404.56C100.85 405.73 101.06 406.49 100.94 406.52Z" fill="#263238"></path> <path d="M47.9101 397.13L43.7201 430.2L0.180054 424.79C0.910054 420.89 24.4001 415.79 24.4001 415.79L26.1601 394.49L47.9101 397.13Z" fill="#455A64"></path> <g opacity="0.6"> <path opacity="0.6" d="M38.0801 415.68C38.4756 415.837 38.7979 416.137 38.983 416.52C39.1682 416.904 39.2028 417.342 39.0801 417.75C38.9038 418.144 38.5859 418.457 38.1895 418.627C37.7931 418.798 37.3472 418.813 36.9401 418.67C36.5272 418.496 36.1949 418.174 36.0095 417.766C35.8242 417.358 35.7994 416.895 35.9401 416.47C36.1707 416.08 36.5382 415.791 36.9709 415.658C37.4036 415.525 37.8703 415.558 38.2801 415.75" fill="white"></path> </g> <g opacity="0.6"> <path opacity="0.6" d="M43.72 430.2L44.01 426.85L2.16003 422.92C2.16003 422.92 0.160034 423.48 0.160034 424.79L43.72 430.2Z" fill="white"></path> </g> <path d="M23.72 415.5C23.72 415.7 24.72 415.92 25.72 416.7C26.72 417.48 27.14 418.39 27.35 418.33C27.56 418.27 27.35 417.08 26.19 416.16C25.03 415.24 23.69 415.31 23.72 415.5Z" fill="#263238"></path> <path d="M18.9301 416.72C18.8601 416.9 19.7401 417.36 20.3601 418.3C20.9801 419.24 21.0801 420.17 21.2901 420.18C21.5001 420.19 21.7801 419.08 20.9801 417.92C20.1801 416.76 19.0001 416.52 18.9301 416.72Z" fill="#263238"></path> <path d="M15.7101 421.56C15.9001 421.63 16.3201 420.66 15.9101 419.49C15.5001 418.32 14.5501 417.76 14.4401 417.92C14.3301 418.08 14.8801 418.74 15.2001 419.7C15.5201 420.66 15.5001 421.51 15.7101 421.56Z" fill="#263238"></path> <path d="M24.69 410.69C24.75 410.89 25.76 410.69 26.96 410.96C28.16 411.23 29.04 411.66 29.17 411.5C29.3 411.34 28.49 410.5 27.08 410.26C25.67 410.02 24.6 410.52 24.69 410.69Z" fill="#263238"></path> <path d="M26.3201 405.94C27.0128 406.211 27.7631 406.3 28.5001 406.2C29.2984 406.162 30.09 406.034 30.8601 405.82C31.3129 405.691 31.7571 405.535 32.1901 405.35C32.4479 405.247 32.6902 405.109 32.9101 404.94C33.0658 404.818 33.1734 404.644 33.2136 404.45C33.2539 404.256 33.2243 404.054 33.1301 403.88C33.0366 403.726 32.9099 403.595 32.7594 403.497C32.6089 403.398 32.4383 403.334 32.2601 403.31C31.9845 403.275 31.7056 403.275 31.4301 403.31C30.9529 403.363 30.4812 403.456 30.0201 403.59C29.2522 403.808 28.5233 404.146 27.8601 404.59C26.7401 405.35 26.3001 406.06 26.3701 406.11C26.4401 406.16 27.0301 405.62 28.1401 405.02C28.7944 404.669 29.4897 404.4 30.2101 404.22C30.6374 404.117 31.072 404.047 31.5101 404.01C31.9801 403.96 32.3801 404.01 32.5101 404.21C32.6401 404.41 32.5101 404.32 32.4401 404.43C32.2774 404.553 32.0992 404.654 31.9101 404.73C31.5092 404.912 31.0986 405.073 30.6801 405.21C29.9626 405.44 29.2265 405.607 28.4801 405.71C27.7553 405.732 27.0332 405.809 26.3201 405.94V405.94Z" fill="#263238"></path> <path d="M26.5601 406.26C26.6301 406.26 27.1401 405.63 27.3801 404.34C27.5144 403.583 27.5144 402.807 27.3801 402.05C27.2962 401.597 27.162 401.154 26.9801 400.73C26.8898 400.435 26.7257 400.169 26.5035 399.955C26.2812 399.742 26.0081 399.588 25.7101 399.51C25.5167 399.48 25.3189 399.508 25.1411 399.59C24.9634 399.672 24.8135 399.804 24.7101 399.97C24.5703 400.196 24.4658 400.442 24.4001 400.7C24.2668 401.151 24.2093 401.62 24.2301 402.09C24.2595 402.885 24.49 403.659 24.9001 404.34C25.6201 405.51 26.4801 405.86 26.5101 405.79C26.0916 405.257 25.7107 404.696 25.3701 404.11C25.0668 403.487 24.9095 402.803 24.9101 402.11C24.9153 401.706 24.9793 401.305 25.1001 400.92C25.2201 400.5 25.4401 400.16 25.6001 400.23C25.7601 400.3 26.1501 400.63 26.2801 401C26.4552 401.382 26.5925 401.781 26.6901 402.19C26.8494 402.878 26.9067 403.585 26.8601 404.29C26.7601 405.49 26.4501 406.21 26.5601 406.26Z" fill="#263238"></path> <path d="M119.2 217.39L46.8801 219.7C46.8801 219.7 30.7901 327.18 31.2301 334.7L21.3101 412.7L50.1901 413.7C50.1901 413.7 54.7301 388.34 57.9001 371C60.0101 359.49 63.9001 342.59 64.9001 333C65.9001 323.41 80.3401 257.22 80.3401 257.22C80.3401 257.22 81.5901 334.22 81.6201 337.39C81.6501 340.56 78.2801 413.54 78.2801 413.54H107C108.49 400.38 112 347.68 112.76 337.03C114.13 317.81 120.86 262.5 121.48 248.62C122.1 234.74 119.2 217.39 119.2 217.39Z" fill="#263238"></path> <path d="M57.8601 228.93C57.582 227.836 57.4641 226.708 57.5101 225.58C57.3911 224.459 57.4417 223.326 57.6601 222.22C57.9336 223.315 58.0515 224.442 58.0101 225.57C58.1231 226.691 58.0726 227.823 57.8601 228.93V228.93Z" fill="#455A64"></path> <path d="M60.5001 228.15C60.3351 226.24 60.5146 224.316 61.0301 222.47C61.1908 223.417 61.1908 224.383 61.0301 225.33C61.0089 226.293 60.8298 227.245 60.5001 228.15V228.15Z" fill="#455A64"></path> <path d="M104.63 228.15C104.297 226.534 104.297 224.866 104.63 223.25C104.963 224.866 104.963 226.534 104.63 228.15V228.15Z" fill="#455A64"></path> <path d="M107.47 229.44C107.117 228.433 107.021 227.354 107.19 226.3C107.199 225.234 107.471 224.186 107.98 223.25C107.951 224.286 107.851 225.318 107.68 226.34C107.677 227.377 107.607 228.412 107.47 229.44V229.44Z" fill="#455A64"></path> <path d="M84.4301 255.52C84.4464 255.096 84.5033 254.674 84.6001 254.26C84.7501 253.36 84.9401 252.26 85.1801 250.86C85.6501 247.99 86.1801 244.01 86.5701 239.58C86.9601 235.15 87.0201 231.14 87.0101 228.23C87.0101 226.85 87.0101 225.69 87.0101 224.78C86.9742 224.357 86.9742 223.933 87.0101 223.51C87.1096 223.923 87.1632 224.345 87.1701 224.77C87.2401 225.59 87.3101 226.77 87.3501 228.22C87.466 232.022 87.3692 235.828 87.0601 239.62C86.7561 243.413 86.2386 247.185 85.5101 250.92C85.2301 252.35 84.9801 253.51 84.7801 254.3C84.701 254.717 84.5838 255.125 84.4301 255.52V255.52Z" fill="#455A64"></path> <path d="M82.0001 224.32C81.4419 224.426 80.9332 224.71 80.5501 225.13C80.3598 225.348 80.2193 225.605 80.1381 225.883C80.057 226.161 80.0372 226.454 80.0801 226.74C80.179 227.068 80.3659 227.364 80.6205 227.593C80.8751 227.823 81.1877 227.979 81.5245 228.044C81.8613 228.109 82.2095 228.08 82.5313 227.962C82.8531 227.843 83.1362 227.638 83.3501 227.37C83.4938 227.117 83.5824 226.837 83.61 226.547C83.6376 226.258 83.6035 225.965 83.5101 225.69C83.3232 225.167 82.9725 224.718 82.5101 224.41C82.5101 224.41 82.7001 224.41 82.9901 224.53C83.3902 224.757 83.706 225.108 83.8901 225.53C84.031 225.857 84.0953 226.211 84.0779 226.567C84.0606 226.922 83.9621 227.269 83.7901 227.58C83.5345 227.94 83.181 228.218 82.7716 228.382C82.3622 228.547 81.9143 228.59 81.4811 228.506C81.0479 228.423 80.6478 228.217 80.3285 227.913C80.0091 227.608 79.7841 227.219 79.6801 226.79C79.6327 226.439 79.6676 226.082 79.7822 225.747C79.8968 225.412 80.0878 225.108 80.3401 224.86C80.6611 224.52 81.0874 224.298 81.5501 224.23C81.7901 224.23 82.0001 224.3 82.0001 224.32Z" fill="#455A64"></path> <path d="M50.47 342.91C47.9787 342.154 45.5372 341.242 43.16 340.18C40.7061 339.278 38.3143 338.216 36 337C38.4913 337.756 40.9328 338.668 43.31 339.73C45.7639 340.632 48.1557 341.694 50.47 342.91V342.91Z" fill="#455A64"></path> <path d="M101.65 128.54C101.65 128.54 111.97 131.65 113.33 137.27C114.99 144.12 125.53 183.7 125.53 183.7L146.45 169.11L154.45 177.98C154.45 177.98 135.36 214.46 124.74 214.45C115.87 214.45 108.08 207.66 108.08 207.66L96.7001 174.77L101.65 128.54Z" fill="#E7315E"></path> <path d="M35.2 135.48L28.89 139.73L46.2 208.73L43.79 235.5C48.34 239.5 61.1 242.89 82.91 241.66C96.1317 240.874 109.058 237.422 120.91 231.51L116.55 194.87L102.68 150.22L101.68 128.57L79.52 124.08L54.22 126.2L35.2 135.48Z" fill="#E7315E"></path> <path d="M102.52 183.7C102.38 183.7 102.25 175.1 102.23 164.49C102.21 153.88 102.33 145.29 102.48 145.29C102.63 145.29 102.76 153.88 102.77 164.49C102.78 175.1 102.67 183.7 102.52 183.7Z" fill="#263238"></path> <path d="M52.05 70.71C52.26 66.96 54.57 64.71 57.79 62.71C59.4186 61.7665 61.2509 61.2301 63.1312 61.1466C65.0115 61.063 66.8841 61.4347 68.59 62.23C70.86 63.3 72.84 65.15 75.33 65.47C79.42 65.99 83.33 62.2 87.33 63.15C88.5308 63.4345 89.5957 64.1269 90.3429 65.109C91.0902 66.0911 91.4735 67.302 91.4275 68.5352C91.3815 69.7684 90.909 70.9474 90.0906 71.8711C89.2722 72.7947 88.1587 73.4058 86.94 73.6C89.63 73.99 91.14 77.38 90.15 79.9C89.16 82.42 86.34 83.9 83.63 83.9C80.9051 83.8078 78.2569 82.9746 75.97 81.49C73.63 80.13 71.44 78.49 68.97 77.32C66.5644 76.0204 63.7769 75.613 61.1 76.17C57.55 77.11 55.04 80.46 54.1 84.01C53.16 87.56 53.57 91.31 54.1 94.94C54.63 98.57 55.35 102.23 55 105.89C55.009 106.104 54.9675 106.316 54.8789 106.511C54.7903 106.706 54.6571 106.877 54.49 107.01C53.94 107.31 53.32 106.8 52.92 106.32C48.3713 100.932 44.929 94.6995 42.79 87.98C41.55 84.09 40.87 80.3 42.36 76.5C43.85 72.7 48.85 69.08 52 70.63" fill="#263238"></path> <path d="M48.6001 88.8L54.6001 125.8C55.7201 132.71 60.2101 139.39 71.0501 137.12C80.3101 134.44 79.6301 127.78 78.4201 119.57C78.4201 119.57 88.6001 116.92 87.6901 106.57C87.2501 101.57 85.5001 91.33 83.8101 82.09C82.9348 77.3012 80.2875 73.018 76.3957 70.0936C72.5039 67.1692 67.6533 65.8183 62.8101 66.31L61.8101 66.41C51.1101 68.11 46.5901 78.16 48.6001 88.8Z" fill="#FFBE9D"></path> <path d="M78.41 119.57C73.6303 120.039 68.8164 119.126 64.54 116.94C64.54 116.94 68.6 124.64 78.83 122.67L78.41 119.57Z" fill="#EB996E"></path> <path d="M81.6201 92.93C81.6629 93.3148 81.5544 93.7012 81.3173 94.0073C81.0803 94.3134 80.7333 94.5152 80.3501 94.57C80.1634 94.6029 79.9721 94.5984 79.7873 94.5567C79.6024 94.5151 79.4277 94.437 79.2732 94.3273C79.1188 94.2175 78.9877 94.0781 78.8876 93.9172C78.7875 93.7563 78.7203 93.5771 78.6901 93.39C78.6472 93.0052 78.7558 92.6188 78.9928 92.3127C79.2299 92.0066 79.5768 91.8048 79.9601 91.75C80.1467 91.7171 80.338 91.7216 80.5229 91.7633C80.7077 91.8049 80.8825 91.8829 81.0369 91.9927C81.1914 92.1025 81.3225 92.2419 81.4226 92.4028C81.5227 92.5637 81.5898 92.7429 81.6201 92.93V92.93Z" fill="#263238"></path> <path d="M82.0901 87.38C81.9301 87.59 80.7301 86.88 79.0901 87.04C77.4501 87.2 76.4101 88.12 76.2201 87.94C76.0301 87.76 76.2801 87.49 76.7501 87.07C77.3881 86.5227 78.1824 86.1903 79.0201 86.12C79.8476 86.0289 80.6825 86.2078 81.4001 86.63C82.0001 87 82.1701 87.28 82.0901 87.38Z" fill="#263238"></path> <path d="M66.88 94.36C66.9201 94.7432 66.8103 95.127 66.5735 95.4309C66.3367 95.7348 65.9914 95.9352 65.61 95.99C65.2404 96.0447 64.8641 95.9515 64.5627 95.7306C64.2613 95.5097 64.0591 95.179 64 94.81C63.9547 94.4259 64.0626 94.0393 64.3003 93.7342C64.538 93.4291 64.8864 93.23 65.27 93.18C65.6396 93.1253 66.0159 93.2185 66.3173 93.4394C66.6187 93.6603 66.8209 93.991 66.88 94.36V94.36Z" fill="#263238"></path> <path d="M66.5001 89.25C66.3301 89.46 65.1301 88.74 63.5001 88.91C61.8701 89.08 60.8301 89.98 60.6301 89.81C60.4301 89.64 60.6901 89.36 61.1601 88.94C61.796 88.3814 62.5886 88.0322 63.4301 87.94C64.2571 87.8586 65.089 88.0369 65.8101 88.45C66.3801 88.82 66.5801 89.15 66.5001 89.25Z" fill="#263238"></path> <path d="M73.45 100.46C74.2633 100.113 75.1164 99.8673 75.99 99.73C76.39 99.65 76.76 99.53 76.8 99.25C76.7987 98.8252 76.6621 98.4119 76.41 98.07L74.9 95.07C72.79 90.84 71.22 87.34 71.39 87.25C71.56 87.16 73.39 90.53 75.52 94.77L76.98 97.77C77.2843 98.2337 77.4186 98.7885 77.36 99.34C77.3169 99.49 77.2393 99.6278 77.1334 99.7424C77.0274 99.857 76.8962 99.9452 76.75 100C76.5325 100.088 76.3036 100.146 76.07 100.17C75.2125 100.377 74.3321 100.475 73.45 100.46V100.46Z" fill="#263238"></path> <path d="M66.2801 83C66.1701 83.44 64.5601 83.4 62.7201 83.81C60.8801 84.22 59.4201 84.88 59.1301 84.52C59.0001 84.35 59.2201 83.91 59.7901 83.43C60.5472 82.8301 61.4342 82.4157 62.3801 82.22C63.32 81.9941 64.3001 81.9941 65.2401 82.22C66.0001 82.46 66.3301 82.76 66.2801 83Z" fill="#263238"></path> <path d="M81.05 82.84C80.8 83.23 79.67 82.96 78.35 83.08C77.03 83.2 75.94 83.56 75.65 83.21C75.52 83.04 75.65 82.66 76.11 82.27C76.7239 81.7949 77.465 81.5128 78.2394 81.4594C79.0139 81.406 79.7867 81.5837 80.46 81.97C81 82.29 81.15 82.65 81.05 82.84Z" fill="#263238"></path> <path d="M50.21 96.38C50.03 96.32 42.89 94.99 43.83 102.04C44.77 109.09 51.65 106.69 51.64 106.49C51.63 106.29 50.21 96.38 50.21 96.38Z" fill="#FFBE9D"></path> <path d="M49.13 104.11C49.13 104.11 49.02 104.21 48.82 104.33C48.5466 104.494 48.22 104.544 47.91 104.47C47.4119 104.248 46.9839 103.894 46.672 103.446C46.3601 102.998 46.1762 102.474 46.14 101.93C46.0392 101.329 46.0768 100.714 46.25 100.13C46.2845 99.8994 46.3756 99.681 46.5152 99.4942C46.6548 99.3075 46.8386 99.1583 47.05 99.06C47.1849 99.0063 47.3343 99.0008 47.4727 99.0446C47.6112 99.0883 47.7304 99.1785 47.81 99.3C47.94 99.49 47.91 99.64 47.95 99.64C47.99 99.64 48.08 99.5 47.95 99.22C47.8885 99.0501 47.7678 98.908 47.61 98.82C47.5058 98.7575 47.3899 98.7172 47.2694 98.7018C47.1489 98.6863 47.0266 98.6959 46.91 98.73C46.6343 98.8316 46.3889 99.0014 46.1965 99.2234C46.0042 99.4455 45.8712 99.7127 45.81 100C45.5966 100.644 45.5417 101.33 45.65 102C45.88 103.42 46.79 104.65 47.84 104.81C48.0371 104.841 48.2387 104.826 48.4293 104.767C48.62 104.708 48.7946 104.607 48.94 104.47C49.14 104.28 49.15 104.12 49.13 104.11Z" fill="#EB996E"></path> <path d="M83.0001 72.43C81.7914 70.5273 80.1235 68.9592 78.1501 67.87C74.0153 65.2917 69.1708 64.0876 64.3101 64.43C59.4327 64.8086 54.8933 67.0676 51.6501 70.73C49.1706 73.7332 47.6268 77.3979 47.2101 81.27C46.8109 85.1311 47.1814 89.033 48.3001 92.75C48.6419 94.4252 49.4697 95.9625 50.6801 97.17C51.4801 97.86 52.7901 98.24 53.5601 97.51C53.9611 97.0275 54.1929 96.4268 54.2201 95.8C55.0301 90.2 55.7801 84.2 53.2201 79.14C54.3307 77.1848 55.8359 75.4821 57.6401 74.14C58.5488 73.483 59.5789 73.013 60.6706 72.7572C61.7624 72.5014 62.8941 72.465 64.0001 72.65C67.2601 73.3 69.5101 76.18 72.2401 78.06C74.2095 79.3904 76.4669 80.2338 78.8262 80.5207C81.1855 80.8076 83.5792 80.5297 85.8101 79.71L83.0001 72.43Z" fill="#263238"></path> <path d="M74.85 104.75C74.7717 105.42 74.593 106.074 74.32 106.69C74.1865 107 73.9878 107.277 73.7376 107.503C73.4875 107.729 73.1916 107.898 72.87 108C72.514 108.078 72.1438 108.065 71.7941 107.962C71.4444 107.859 71.1265 107.669 70.87 107.41C70.3747 106.884 70.0565 106.216 69.96 105.5C69.86 104.86 69.96 104.04 70.6 103.83C70.8633 103.77 71.1367 103.77 71.4 103.83L75 104.48" fill="#EB996E"></path> <path d="M74.1 107.76C73.5072 107.919 72.8908 107.969 72.28 107.91C71.6535 107.8 71.0883 107.466 70.69 106.97C70.4614 106.664 70.2996 106.314 70.2152 105.942C70.1308 105.57 70.1256 105.184 70.2 104.81C70.2388 104.62 70.2992 104.436 70.38 104.26C70.48 104.09 70.46 104.1 70.61 104.09C70.76 104.08 70.99 104.16 71.18 104.19L71.77 104.3C72.54 104.44 73.24 104.55 73.77 104.64C74.3975 104.795 75.0451 104.852 75.69 104.81C75.1147 104.519 74.4972 104.32 73.86 104.22L71.86 103.75L71.28 103.63C71.0624 103.575 70.8421 103.532 70.62 103.5C70.4479 103.485 70.2756 103.527 70.13 103.62C69.9989 103.715 69.8954 103.842 69.83 103.99C69.7157 104.211 69.6317 104.447 69.58 104.69C69.4894 105.15 69.5016 105.624 69.6157 106.079C69.7298 106.534 69.943 106.957 70.24 107.32C70.4888 107.613 70.7942 107.852 71.1379 108.024C71.4816 108.196 71.8565 108.297 72.24 108.32C72.7361 108.372 73.2371 108.289 73.69 108.08C74 107.93 74.12 107.79 74.1 107.76Z" fill="#263238"></path> <path d="M89.68 64.62C89.68 64.62 89.75 64.77 89.82 65.08C89.9088 65.5379 89.9256 66.0069 89.87 66.47C89.7529 67.3258 89.4661 68.1496 89.0265 68.8931C88.587 69.6366 88.0034 70.2849 87.31 70.8C86.2544 71.5235 85.0649 72.0289 83.8113 72.2864C82.5577 72.544 81.2654 72.5486 80.01 72.3C77.15 71.91 74.29 70.53 71.3 69.3C68.31 68.07 65.24 67.24 62.48 67.74C60.0437 68.206 57.8332 69.4732 56.2 71.34C55.0739 72.579 54.1645 73.9989 53.51 75.54C53.06 76.64 52.9 77.29 52.86 77.28C52.8622 77.116 52.8927 76.9537 52.95 76.8C53.0544 76.3518 53.1881 75.9108 53.35 75.48C53.9602 73.8773 54.8583 72.3997 56 71.12C57.6584 69.1603 59.9321 67.8208 62.45 67.32C65.33 66.77 68.51 67.63 71.51 68.87C74.51 70.11 77.34 71.48 80.11 71.87C82.5447 72.3699 85.0784 71.8883 87.16 70.53C88.5156 69.5525 89.4374 68.0855 89.73 66.44C89.7945 65.8338 89.7777 65.2217 89.68 64.62V64.62Z" fill="#455A64"></path> <path d="M43.4001 86.09C43.3532 85.4119 43.4451 84.7314 43.6701 84.09C44.3493 81.6876 45.7446 79.5492 47.6701 77.96C48.2254 77.4732 48.8914 77.1299 49.6101 76.96C50.1058 76.8604 50.6202 76.9199 51.0801 77.13C51.4001 77.29 51.5101 77.46 51.5001 77.48C50.9348 77.205 50.2916 77.1343 49.6801 77.28C48.2735 77.8907 47.0674 78.8853 46.2001 80.15C45.2483 81.3841 44.5052 82.7657 44.0001 84.24C43.5901 85.36 43.4701 86.1 43.4001 86.09Z" fill="#455A64"></path> <path d="M45.26 92.19C45.2831 91.5254 45.4183 90.8695 45.66 90.25C46.1831 88.7307 46.9758 87.3181 48 86.08C49.0351 84.8616 50.286 83.8446 51.69 83.08C52.2509 82.7189 52.8753 82.4678 53.53 82.34C52.9889 82.704 52.428 83.0379 51.85 83.34C50.5369 84.1832 49.3572 85.218 48.35 86.41C47.3514 87.6136 46.5421 88.9625 45.95 90.41C45.7573 91.0171 45.5269 91.6116 45.26 92.19V92.19Z" fill="#455A64"></path> <path d="M137.41 150.19H78.62C70.2087 150.19 63.39 157.009 63.39 165.42V210.22C63.39 218.631 70.2087 225.45 78.62 225.45H137.41C145.821 225.45 152.64 218.631 152.64 210.22V165.42C152.64 157.009 145.821 150.19 137.41 150.19Z" fill="#FAFAFA"></path> <path d="M137.41 225.45L138.19 225.38C138.952 225.334 139.711 225.237 140.46 225.09C140.94 224.95 141.46 224.83 142.08 224.64C142.724 224.427 143.352 224.17 143.96 223.87C147.423 222.204 150.115 219.273 151.48 215.68C151.692 215.133 151.866 214.571 152 214C152.16 213.406 152.274 212.801 152.34 212.19C152.474 210.888 152.521 209.578 152.48 208.27C152.48 202.83 152.48 196.63 152.48 189.78C152.48 182.93 152.48 175.43 152.48 167.37C152.585 165.352 152.387 163.329 151.89 161.37C151.328 159.359 150.35 157.489 149.02 155.88C147.621 154.208 145.877 152.859 143.907 151.923C141.938 150.988 139.79 150.489 137.61 150.46H78.68C76.1143 150.475 73.5935 151.135 71.35 152.38C69.1418 153.62 67.2866 155.403 65.96 157.56C65.2947 158.615 64.7671 159.751 64.39 160.94C64.0253 162.122 63.807 163.345 63.74 164.58C63.66 167.06 63.74 169.58 63.74 172.02C63.74 181.88 63.74 191.39 63.74 200.45V207.16C63.5738 209.309 63.661 211.471 64 213.6C64.4669 215.601 65.3375 217.485 66.5583 219.138C67.7792 220.79 69.3247 222.176 71.1 223.21C72.7918 224.192 74.6609 224.831 76.6 225.09C78.4926 225.243 80.3918 225.296 82.29 225.25H93.04L125.49 225.34H134.32H136.61H137.39C137.39 225.34 137.13 225.34 136.61 225.34H134.32L125.49 225.39L93.04 225.47H82.29C80.3754 225.524 78.4592 225.474 76.55 225.32C74.5559 225.062 72.6324 224.413 70.89 223.41C69.0583 222.347 67.4626 220.922 66.2005 219.222C64.9385 217.521 64.0366 215.581 63.55 213.52C63.1583 211.36 63.0206 209.162 63.14 206.97C63.14 204.76 63.14 202.53 63.14 200.26C63.14 191.2 63.14 181.69 63.14 171.83C63.14 169.36 63.14 166.9 63.14 164.36C63.2112 163.082 63.4327 161.816 63.8 160.59C64.1992 159.361 64.7466 158.186 65.43 157.09C66.8046 154.858 68.725 153.014 71.01 151.73C73.3272 150.434 75.935 149.746 78.59 149.73H137.53C139.777 149.764 141.99 150.283 144.018 151.251C146.046 152.22 147.841 153.614 149.28 155.34C150.668 156.994 151.691 158.923 152.28 161C152.781 163.009 152.98 165.082 152.87 167.15C152.87 175.21 152.87 182.71 152.87 189.56C152.87 196.41 152.87 202.61 152.87 208.05C152.908 209.369 152.855 210.689 152.71 212C152.637 212.622 152.517 213.237 152.35 213.84C152.203 214.422 152.015 214.993 151.79 215.55C150.41 219.284 147.61 222.321 144 224C143.384 224.294 142.749 224.548 142.1 224.76C141.51 224.94 140.95 225.05 140.46 225.18C139.705 225.326 138.939 225.406 138.17 225.42L137.41 225.45Z" fill="#263238"></path> <path d="M152.64 187.82C152.622 187.904 152.592 187.985 152.55 188.06C152.49 188.21 152.36 188.43 152.2 188.72C151.693 189.536 151.107 190.3 150.45 191C147.939 193.516 144.817 195.336 141.39 196.28C139.044 196.967 136.629 197.393 134.19 197.55C132.88 197.55 131.52 197.7 130.12 197.55C128.679 197.532 127.24 197.432 125.81 197.25L123.59 196.97C122.84 196.83 122.1 196.65 121.34 196.49L120.2 196.24C119.82 196.14 119.45 196.01 119.07 195.9C118.32 195.65 117.54 195.44 116.79 195.16C113.689 193.965 110.725 192.439 107.95 190.61C105.07 188.79 102.38 186.86 99.59 185.32C96.9327 183.812 94.059 182.723 91.07 182.09C85.9521 181.189 80.6978 181.442 75.69 182.83C72.3191 183.777 69.1455 185.322 66.32 187.39C65.552 187.954 64.8175 188.561 64.12 189.21C63.64 189.65 63.41 189.91 63.39 189.9C63.4294 189.823 63.48 189.752 63.54 189.69L64.04 189.13C64.712 188.444 65.434 187.809 66.2 187.23C69.0048 185.072 72.1901 183.461 75.59 182.48C80.6485 181.021 85.9717 180.727 91.16 181.62C94.2063 182.245 97.1354 183.345 99.84 184.88C102.66 186.43 105.37 188.36 108.23 190.18C110.976 191.985 113.906 193.493 116.97 194.68C117.71 194.96 118.47 195.17 119.21 195.42C119.59 195.53 119.95 195.66 120.33 195.76L121.45 196.01C122.2 196.17 122.93 196.35 123.67 196.49L125.87 196.78C127.284 196.955 128.706 197.059 130.13 197.09C131.52 197.2 132.86 197.09 134.13 197.09C136.539 196.953 138.927 196.554 141.25 195.9C144.63 194.997 147.726 193.253 150.25 190.83C150.92 190.154 151.526 189.418 152.06 188.63C152.24 188.36 152.38 188.15 152.46 188C152.54 187.85 152.63 187.81 152.64 187.82Z" fill="#263238"></path> <path d="M134.17 178.24C138.202 178.24 141.47 174.972 141.47 170.94C141.47 166.908 138.202 163.64 134.17 163.64C130.138 163.64 126.87 166.908 126.87 170.94C126.87 174.972 130.138 178.24 134.17 178.24Z" fill="#455A64"></path> <path d="M35.39 135.48L29.87 139.2C27.3699 140.862 25.2593 143.045 23.6833 145.6C22.1072 148.154 21.1031 151.02 20.74 154C18.86 170.32 17.37 199.77 21.07 205.88C26.07 214.13 79.33 216.82 79.33 216.82L82.91 200.31L39.45 190.31L40 176.64L35.39 135.48Z" fill="#E7315E"></path> <path d="M40.0001 159.14C40.0218 159.333 40.0218 159.527 40.0001 159.72C40.0001 160.127 40.0001 160.687 40.0001 161.4C40.0001 162.88 39.9301 165.04 39.9301 167.8C39.9301 173.31 40.3001 181.23 39.9301 190.8L39.7501 190.57L78.6801 199.17L82.9801 200.17L83.2501 200.23L83.1901 200.49C81.9401 206.25 80.7301 211.8 79.6001 217V217.21H79.3901C67.3728 216.727 55.4002 215.455 43.5501 213.4C39.1601 212.64 35.6901 211.92 33.3201 211.4C32.1301 211.14 31.2201 210.92 30.6101 210.76L29.9101 210.57C29.8295 210.556 29.7518 210.529 29.6801 210.49H29.9201L30.6301 210.63L33.3501 211.19C35.7301 211.67 39.2101 212.34 43.6001 213.06C55.4504 215.002 67.4102 216.205 79.4101 216.66L79.1501 216.87L82.7101 200.36L82.9201 200.68L78.6201 199.68L39.6401 191H39.4501V190.81C39.9001 181.29 39.5701 173.38 39.6801 167.86C39.6801 165.09 39.8001 162.93 39.8601 161.46C39.8601 160.74 39.9301 160.19 39.9601 159.78C39.9553 159.566 39.9687 159.352 40.0001 159.14Z" fill="#263238"></path> <path d="M88.52 203.52C89.5949 202.044 90.9808 200.822 92.58 199.94C95.31 198.39 100.74 197.86 101.8 196.06C102.86 194.26 104.48 196.15 103.54 198.47C102.94 199.95 98.96 203.34 98.96 203.34C98.96 203.34 102.49 205.02 105.25 204.1C108.01 203.18 117.19 202.37 117.87 203.77C118.64 205.35 116.28 205.35 115.19 205.7C114.37 205.97 108.03 207.7 108.03 207.7C108.03 207.7 119.57 209.63 120.9 210.47C122.23 211.31 120.46 212.47 119.73 212.32C119.27 212.25 120.52 213.77 118.87 214.78C117.75 215.47 112.87 215.55 111.55 215.3L108.88 214.8L116.8 217.29C116.8 217.29 117.93 218.85 115.8 219.13C114.88 219.25 89.65 217.81 87.72 217.53C84.4 217.06 79.72 216.21 79.72 216.21L82.42 202.56L88.52 203.52Z" fill="#FFBE9D"></path> <path d="M153.1 184.72L152.95 179.39C152.95 179.39 146.4 173.46 145.95 170.87L145.58 169.4C145.58 169.4 141.99 166.92 142.92 164.59C142.24 162.98 142.36 161.92 143.81 161.74C143.81 161.74 141.07 159.92 142.9 157.48C144.73 155.04 155 164.1 155 164.1C155 164.1 160.41 167.36 158 169.8C158 169.8 158.16 172.69 156.79 174.37C156.79 174.37 158.92 177.37 156.64 179.37L153.1 184.72Z" fill="#FFBE9D"></path> <path d="M155.3 173.57C155.3 173.57 155.51 173.57 155.85 173.63C156.348 173.824 156.769 174.175 157.05 174.63C157.485 175.27 157.69 176.039 157.63 176.81C157.552 177.728 157.294 178.622 156.87 179.44C156.161 180.919 155.245 182.289 154.15 183.51C153.737 184.048 153.228 184.505 152.65 184.86C154.109 183.128 155.376 181.244 156.43 179.24C156.832 178.477 157.09 177.647 157.19 176.79C157.272 176.094 157.12 175.391 156.76 174.79C156.419 174.236 155.906 173.807 155.3 173.57V173.57Z" fill="#EB996E"></path> <path d="M153.76 168.24C153.65 168.34 151.7 166.41 148.9 164.55C146.1 162.69 143.58 161.55 143.64 161.46C144.237 161.568 144.814 161.767 145.35 162.05C146.684 162.634 147.962 163.337 149.17 164.15C150.382 164.958 151.52 165.871 152.57 166.88C153.033 167.271 153.434 167.729 153.76 168.24V168.24Z" fill="#EB996E"></path> <path d="M153 171.14C152.91 171.25 150.83 169.54 148.05 167.74C145.27 165.94 142.87 164.74 142.93 164.59C144.849 165.237 146.662 166.163 148.31 167.34C150.048 168.374 151.628 169.654 153 171.14V171.14Z" fill="#EB996E"></path> <path d="M156.31 167.66C156.31 167.54 157.25 167.81 157.8 168.78C158.35 169.75 158.14 170.67 158.01 170.63C157.88 170.59 157.86 169.82 157.39 169.01C156.92 168.2 156.25 167.79 156.31 167.66Z" fill="#EB996E"></path> <path d="M150.79 174.05C149.872 173.407 149.015 172.68 148.23 171.88C147.336 171.197 146.506 170.434 145.75 169.6C146.796 170.052 147.744 170.704 148.54 171.52C149.443 172.213 150.207 173.072 150.79 174.05V174.05Z" fill="#EB996E"></path> <path d="M209.89 107.26C211.856 107.26 213.45 105.666 213.45 103.7C213.45 101.734 211.856 100.14 209.89 100.14C207.924 100.14 206.33 101.734 206.33 103.7C206.33 105.666 207.924 107.26 209.89 107.26Z" fill="#E7315E"></path> <path d="M210.05 102.79C208.497 102.818 206.957 102.508 205.535 101.881C204.114 101.254 202.847 100.326 201.82 99.16C194.17 90.75 195.97 70.76 196.05 69.91C196.05 61.66 193.68 55.3 189.05 51.06C181.6 44.29 170.73 45.25 170.62 45.26L127.5 44.9V43.9L170.56 44.27C170.97 44.27 181.93 43.27 189.71 50.27C194.6 54.71 197.08 61.27 197.08 69.92C197.08 70.17 195.24 90.37 202.59 98.45C203.524 99.5105 204.678 100.355 205.972 100.925C207.265 101.495 208.667 101.776 210.08 101.75L210.05 102.79Z" fill="#E7315E"></path> <path d="M158.55 0.339996H123C118.687 0.339996 115.19 3.83665 115.19 8.15V43.7C115.19 48.0133 118.687 51.51 123 51.51H158.55C162.863 51.51 166.36 48.0133 166.36 43.7V8.15C166.36 3.83665 162.863 0.339996 158.55 0.339996Z" fill="#E7315E"></path> <path d="M143.24 26.37C144.49 25.8177 145.55 24.9117 146.291 23.7638C147.032 22.6159 147.421 21.2762 147.41 19.91C147.475 19.0123 147.354 18.1108 147.056 17.2615C146.758 16.4122 146.289 15.6332 145.677 14.9729C145.065 14.3125 144.325 13.7849 143.501 13.4227C142.677 13.0605 141.787 12.8715 140.887 12.8674C139.987 12.8633 139.096 13.0441 138.268 13.3988C137.441 13.7534 136.696 14.2742 136.078 14.9289C135.46 15.5837 134.984 16.3583 134.678 17.2048C134.372 18.0514 134.243 18.9517 134.3 19.85C134.278 21.2275 134.663 22.5809 135.406 23.7407C136.15 24.9006 137.219 25.8152 138.48 26.37C128.4 27.89 128.85 38.85 128.85 38.85L152.69 38.96C152.69 38.96 153.24 27.88 143.24 26.37Z" fill="white"></path> <path d="M295.62 127.64C295.62 128.246 295.44 128.838 295.104 129.341C294.767 129.845 294.288 130.237 293.729 130.468C293.169 130.699 292.553 130.759 291.959 130.64C291.365 130.522 290.82 130.229 290.393 129.8C289.965 129.371 289.675 128.825 289.558 128.231C289.441 127.637 289.503 127.021 289.736 126.462C289.969 125.903 290.363 125.426 290.867 125.091C291.372 124.756 291.964 124.578 292.57 124.58C292.971 124.58 293.369 124.659 293.74 124.813C294.11 124.967 294.447 125.193 294.73 125.477C295.014 125.761 295.238 126.099 295.391 126.47C295.543 126.841 295.621 127.239 295.62 127.64V127.64Z" fill="#263238"></path> <path d="M398.19 213.61L395.72 148.37C395.72 137.03 388.02 127.81 378.56 127.81H294.39V126.81H378.56C388.56 126.81 396.72 136.47 396.72 148.35L399.19 213.57L398.19 213.61Z" fill="#263238"></path> <path d="M466.29 148.91H346.11C339.162 148.91 333.53 154.542 333.53 161.49V237.52C333.53 244.468 339.162 250.1 346.11 250.1H466.29C473.238 250.1 478.87 244.468 478.87 237.52V161.49C478.87 154.542 473.238 148.91 466.29 148.91Z" fill="#FAFAFA"></path> <path d="M466.28 250.1C467.88 250.045 469.458 249.707 470.94 249.1C473.054 248.229 474.892 246.801 476.259 244.968C477.625 243.134 478.469 240.965 478.7 238.69C478.81 237.22 478.7 235.63 478.75 233.98C478.8 232.33 478.75 230.59 478.75 228.78C478.75 225.15 478.75 221.21 478.75 216.97C478.75 208.5 478.75 198.85 478.75 188.19C478.75 182.857 478.75 177.277 478.75 171.45V162.54C478.823 161.033 478.658 159.525 478.26 158.07C477.621 155.814 476.352 153.787 474.603 152.227C472.853 150.666 470.694 149.637 468.38 149.26C466.77 149.082 465.149 149.025 463.53 149.09H437.86H346.12C344.125 149.1 342.162 149.594 340.399 150.529C338.637 151.465 337.127 152.813 336 154.46C334.881 156.081 334.164 157.946 333.91 159.9C333.803 160.879 333.766 161.865 333.8 162.85V165.85C333.8 173.77 333.8 181.57 333.8 189.25C333.8 204.6 333.8 219.4 333.8 233.51V236.14C333.8 237.02 333.8 237.89 333.86 238.74C334.016 240.434 334.528 242.076 335.36 243.56C336.179 245.013 337.282 246.287 338.603 247.306C339.924 248.324 341.436 249.067 343.05 249.49C344.651 249.847 346.292 249.985 347.93 249.9H362.39H397.28L447.79 249.98L461.52 250.03H465.1C465.9 250.03 466.31 250.03 466.31 250.03H465.1H461.52L447.79 250.08L397.28 250.17H362.39H347.9C346.222 250.258 344.54 250.117 342.9 249.75C341.222 249.318 339.648 248.552 338.273 247.497C336.898 246.442 335.751 245.12 334.9 243.61C334.034 242.071 333.499 240.368 333.33 238.61C333.27 237.72 333.26 236.84 333.27 235.97V233.34C333.27 219.23 333.27 204.43 333.27 189.08V162.85C333.242 161.848 333.282 160.846 333.39 159.85C333.655 157.816 334.402 155.876 335.57 154.19C336.752 152.486 338.329 151.093 340.166 150.132C342.003 149.171 344.046 148.669 346.12 148.67H437.86H463.44C465.083 148.613 466.727 148.677 468.36 148.86C470.755 149.256 472.989 150.326 474.798 151.945C476.608 153.563 477.92 155.664 478.58 158C478.984 159.495 479.149 161.044 479.07 162.59V171.5C479.07 177.32 479.07 182.9 479.07 188.24C479.07 198.9 479.07 208.55 479.07 217.02C479.07 221.26 479.07 225.197 479.07 228.83C479.07 230.64 479.07 232.38 479.07 234.03C479.07 235.68 479.07 237.26 478.99 238.76C478.717 241.43 477.603 243.943 475.81 245.94C474.514 247.4 472.889 248.531 471.07 249.24C469.955 249.681 468.784 249.96 467.59 250.07C466.69 250.1 466.28 250.1 466.28 250.1Z" fill="#263238"></path> <path d="M374.73 154H343.39C342.186 154 341.031 154.478 340.18 155.33C339.328 156.181 338.85 157.336 338.85 158.54V209.54H388L374.73 154Z" fill="#455A64"></path> <path d="M379.12 153.95L393.46 209.48H449.44L432.1 153.95H379.12Z" fill="#E7315E"></path> <path d="M438.71 154L449.82 188.6L472.37 158.53C472.37 157.329 471.893 156.176 471.043 155.327C470.194 154.477 469.041 154 467.84 154H438.71Z" fill="#E0E0E0"></path> <path d="M472.37 164.57L451.47 193.49L467.84 243C469.041 243 470.194 242.523 471.043 241.673C471.893 240.824 472.37 239.671 472.37 238.47V164.57Z" fill="#455A64"></path> <path d="M461.3 242.99L451.71 212.79L381.5 213.85L369.05 243.26L461.3 242.99Z" fill="#263238"></path> <path d="M364 243L377 213.86H338.85V238.46C338.85 239.056 338.967 239.647 339.196 240.197C339.424 240.748 339.758 241.249 340.18 241.67C340.601 242.092 341.102 242.426 341.653 242.654C342.203 242.883 342.794 243 343.39 243H364Z" fill="#E0E0E0"></path> <g opacity="0.3"> <path opacity="0.3" d="M419.58 183C419.58 184.08 415.66 184.95 410.82 184.95C405.98 184.95 402.05 184.08 402.05 183C402.05 181.92 405.98 181 410.82 181C415.66 181 419.58 182 419.58 183Z" fill="black"></path> </g> <path d="M427.34 157.76C427.347 155.216 426.766 152.705 425.644 150.423C424.522 148.14 422.888 146.147 420.869 144.599C418.851 143.051 416.503 141.99 414.007 141.498C411.511 141.006 408.936 141.097 406.481 141.763C404.026 142.429 401.758 143.653 399.853 145.339C397.949 147.025 396.459 149.128 395.5 151.484C394.541 153.84 394.138 156.385 394.324 158.922C394.51 161.459 395.278 163.919 396.57 166.11V166.11L396.62 166.18C397.25 167.24 398.05 168.01 398.85 169.13L408.44 181.84C408.72 182.207 409.081 182.504 409.494 182.709C409.908 182.914 410.363 183.02 410.825 183.02C411.287 183.02 411.742 182.914 412.155 182.709C412.569 182.504 412.93 182.207 413.21 181.84L422.64 169.34C423.503 168.326 424.307 167.265 425.05 166.16V166.16C426.555 163.617 427.346 160.715 427.34 157.76ZM410.82 165C409.379 165.002 407.97 164.576 406.772 163.777C405.573 162.978 404.638 161.841 404.086 160.511C403.534 159.18 403.389 157.715 403.669 156.302C403.95 154.889 404.643 153.591 405.662 152.572C406.681 151.554 407.979 150.86 409.392 150.579C410.805 150.299 412.27 150.444 413.601 150.996C414.931 151.548 416.068 152.483 416.867 153.682C417.666 154.88 418.092 156.289 418.09 157.73C418.087 159.657 417.321 161.505 415.958 162.868C414.595 164.231 412.747 164.997 410.82 165V165Z" fill="#455A64"></path> </svg> 